<svg width="24" height="23" viewBox="0 0 24 23" fill="none" xmlns="http://www.w3.org/2000/svg">
<path d="M5.55401 10.661L6.07802 9.8092L6.06594 9.80199L5.55401 10.661ZM18.4474 17.7439L17.9389 16.8828L18.4474 17.7439ZM18.9389 16.8828H17.9389H18.9389ZM10.9656 20.8936L10.4291 21.7375L10.9656 20.8936ZM13.0554 20.9279L13.5639 21.789L13.0554 20.9279ZM1.90407 7.62685L1.39214 6.76783L1.90407 7.62685ZM1.90407 8.48588L1.39214 9.34491L1.90407 8.48588ZM13.4999 13.9901L14.0118 14.8491L14.0256 14.8409L14.0391 14.8322L13.4999 13.9901ZM10.9656 13.9901L10.4416 14.8418L10.4847 14.8683L10.5303 14.8904L10.9656 13.9901ZM22.0959 7.62685L22.6078 6.76783L22.0959 7.62685ZM22.0959 8.48588L21.584 7.62685C21.5748 7.63233 21.5657 7.63796 21.5566 7.64373L22.0959 8.48588ZM6.01756 17.7483L6.55401 16.9044L6.01756 17.7483ZM12.5119 1.91539L12 2.77441L12.5119 1.91539ZM11.4881 1.91539L12 2.77441L11.4881 1.91539ZM23.2 8.03972C23.2 7.48744 22.7523 7.03972 22.2 7.03972C21.6477 7.03972 21.2 7.48744 21.2 8.03972H23.2ZM21.2 13.4397C21.2 13.992 21.6477 14.4397 22.2 14.4397C22.7523 14.4397 23.2 13.992 23.2 13.4397H21.2ZM12 2.77441L21.584 8.48588L22.6078 6.76783L13.0238 1.05636L12 2.77441ZM21.5566 7.64373L12.9606 13.1479L14.0391 14.8322L22.6351 9.32803L21.5566 7.64373ZM2.416 8.48588L12 2.77441L10.9761 1.05636L1.39214 6.76783L2.416 8.48588ZM11.4895 13.1383L6.07797 9.80928L5.03004 11.5128L10.4416 14.8418L11.4895 13.1383ZM6.06594 9.80199L2.416 7.62685L1.39214 9.34491L5.04208 11.52L6.06594 9.80199ZM4.55401 10.661V16.9044H6.55401V10.661H4.55401ZM5.48111 18.5923L10.4291 21.7375L11.502 20.0496L6.55401 16.9044L5.48111 18.5923ZM13.5639 21.789L18.9559 18.605L17.9389 16.8828L12.5469 20.0668L13.5639 21.789ZM19.9389 16.8828L19.9389 10.661H17.9389L17.9389 16.8828H19.9389ZM18.9559 18.605C19.5651 18.2453 19.9389 17.5904 19.9389 16.8828H17.9389L18.9559 18.605ZM10.4291 21.7375C11.3812 22.3427 12.5924 22.3626 13.5639 21.789L12.5469 20.0668C12.2231 20.258 11.8194 20.2514 11.502 20.0496L10.4291 21.7375ZM1.39214 6.76783C0.415995 7.34955 0.416001 8.76319 1.39214 9.34491L2.416 7.62685C2.74138 7.82076 2.74138 8.29197 2.416 8.48588L1.39214 6.76783ZM12.988 13.131C13.0022 13.1226 12.789 13.2205 12.4187 13.2515C12.0755 13.2803 11.7122 13.2403 11.4008 13.0897L10.5303 14.8904C11.2532 15.2398 11.9994 15.2938 12.5859 15.2445C13.1453 15.1976 13.6822 15.0455 14.0118 14.8491L12.988 13.131ZM21.584 8.48588C21.2586 8.29198 21.2586 7.82076 21.584 7.62685L22.6078 9.34491C23.584 8.76319 23.584 7.34955 22.6078 6.76783L21.584 8.48588ZM4.55401 16.9044C4.55401 17.5886 4.90372 18.2252 5.48111 18.5923L6.55401 16.9044V16.9044H4.55401ZM13.0238 1.05636C12.393 0.680434 11.6069 0.680432 10.9761 1.05636L12 2.77441L12 2.77441L13.0238 1.05636ZM21.2 8.03972V13.4397H23.2V8.03972H21.2Z" fill="currentColor"/>
</svg>
