<svg width="22" height="23" viewBox="0 0 22 23" fill="none" xmlns="http://www.w3.org/2000/svg">
<path d="M1 3.49023C1 2.38566 1.89543 1.49023 3 1.49023H7C8.10457 1.49023 9 2.38566 9 3.49023V7.49023C9 8.5948 8.10457 9.49023 7 9.49023H3C1.89543 9.49023 1 8.5948 1 7.49023V3.49023Z" stroke="currentColor" stroke-width="1.5"/>
<path d="M21 5.49023C21 7.69937 19.2091 9.49023 17 9.49023C14.7909 9.49023 13 7.69937 13 5.49023C13 3.2811 14.7909 1.49023 17 1.49023C19.2091 1.49023 21 3.2811 21 5.49023Z" stroke="currentColor" stroke-width="1.5"/>
<path d="M9 17.4902C9 19.6994 7.20914 21.4902 5 21.4902C2.79086 21.4902 1 19.6994 1 17.4902C1 15.2811 2.79086 13.4902 5 13.4902C7.20914 13.4902 9 15.2811 9 17.4902Z" stroke="currentColor" stroke-width="1.5"/>
<path d="M13 15.4902C13 14.3857 13.8954 13.4902 15 13.4902H19C20.1046 13.4902 21 14.3857 21 15.4902V19.4902C21 20.5948 20.1046 21.4902 19 21.4902H15C13.8954 21.4902 13 20.5948 13 19.4902V15.4902Z" stroke="currentColor" stroke-width="1.5"/>
</svg>
