<svg width="22" height="23" viewBox="0 0 22 23" fill="none" xmlns="http://www.w3.org/2000/svg">
<path d="M7 15.9902H6.25C6.25 16.2527 6.38724 16.4961 6.61184 16.632C6.83645 16.7678 7.11574 16.7764 7.34822 16.6545L7 15.9902ZM0.25 21.4902C0.25 21.9044 0.585786 22.2402 1 22.2402C1.41421 22.2402 1.75 21.9044 1.75 21.4902H0.25ZM10.2428 14.2903L10.591 14.9545L10.6189 14.9399L10.6455 14.923L10.2428 14.2903ZM11.7913 16.7456L12.1435 17.4078L12.1666 17.3955L12.1888 17.3816L11.7913 16.7456ZM7.76426 18.8876L7.41207 18.2254L7.38896 18.2377L7.36677 18.2516L7.76426 18.8876ZM4.96778 18.1838L5.61896 17.8117L4.96778 18.1838ZM4.65118 16.1181C4.44567 15.7585 3.98753 15.6335 3.6279 15.8391C3.26826 16.0446 3.14331 16.5027 3.34882 16.8623L4.65118 16.1181ZM12.2667 14.768L12.9098 14.3822L12.2667 14.768ZM7.75 19.4902C7.75 19.076 7.41421 18.7402 7 18.7402C6.58579 18.7402 6.25 19.076 6.25 19.4902H7.75ZM6.25 21.4902C6.25 21.9044 6.58579 22.2402 7 22.2402C7.41421 22.2402 7.75 21.9044 7.75 21.4902H6.25ZM11.8673 13.5876L11.4646 14.2203L12.7301 15.0256L13.1327 14.3929L11.8673 13.5876ZM16.6327 8.89289C16.8551 8.54344 16.7521 8.07987 16.4027 7.85749C16.0532 7.63511 15.5896 7.73812 15.3673 8.08758L16.6327 8.89289ZM4.25 3.99023C4.25 4.40445 4.58579 4.74023 5 4.74023C5.41421 4.74023 5.75 4.40445 5.75 3.99023H4.25ZM18 10.7402C17.5858 10.7402 17.25 11.076 17.25 11.4902C17.25 11.9044 17.5858 12.2402 18 12.2402V10.7402ZM9 4.74023C8.58579 4.74023 8.25 5.07602 8.25 5.49023C8.25 5.90445 8.58579 6.24023 9 6.24023V4.74023ZM17 6.24023C17.4142 6.24023 17.75 5.90445 17.75 5.49023C17.75 5.07602 17.4142 4.74023 17 4.74023V6.24023ZM9 7.74023C8.58579 7.74023 8.25 8.07602 8.25 8.49023C8.25 8.90445 8.58579 9.24023 9 9.24023V7.74023ZM13 9.24023C13.4142 9.24023 13.75 8.90445 13.75 8.49023C13.75 8.07602 13.4142 7.74023 13 7.74023V9.24023ZM5.25 8.49023C5.25 9.18059 4.69036 9.74023 4 9.74023V11.2402C5.51878 11.2402 6.75 10.009 6.75 8.49023H5.25ZM4 9.74023C3.30964 9.74023 2.75 9.18059 2.75 8.49023H1.25C1.25 10.009 2.48122 11.2402 4 11.2402V9.74023ZM2.75 8.49023C2.75 7.79988 3.30964 7.24023 4 7.24023V5.74023C2.48122 5.74023 1.25 6.97145 1.25 8.49023H2.75ZM4 7.24023C4.69036 7.24023 5.25 7.79988 5.25 8.49023H6.75C6.75 6.97145 5.51878 5.74023 4 5.74023V7.24023ZM7.75 15.9902V15.4902H6.25V15.9902H7.75ZM0.25 15.4902V21.4902H1.75V15.4902H0.25ZM7.34822 16.6545L10.591 14.9545L9.89458 13.626L6.65178 15.326L7.34822 16.6545ZM11.4391 16.0835L7.41207 18.2254L8.11646 19.5497L12.1435 17.4078L11.4391 16.0835ZM5.61896 17.8117L4.65118 16.1181L3.34882 16.8623L4.3166 18.556L5.61896 17.8117ZM10.6455 14.923C10.9784 14.7111 11.4205 14.8155 11.6236 15.1539L12.9098 14.3822C12.2726 13.3201 10.885 12.9926 9.84015 13.6575L10.6455 14.923ZM7.36677 18.2516C6.76495 18.6277 5.97107 18.4279 5.61896 17.8117L4.3166 18.556C5.09123 19.9116 6.83776 20.3511 8.16176 19.5236L7.36677 18.2516ZM1.75 15.4902C1.75 14.2476 2.75736 13.2402 4 13.2402V11.7402C1.92893 11.7402 0.25 13.4192 0.25 15.4902H1.75ZM11.6236 15.1539C11.8203 15.4818 11.7181 15.907 11.3938 16.1097L12.1888 17.3816C13.2066 16.7455 13.5273 15.4114 12.9098 14.3822L11.6236 15.1539ZM7.75 15.4902C7.75 13.4192 6.07107 11.7402 4 11.7402V13.2402C5.24264 13.2402 6.25 14.2476 6.25 15.4902H7.75ZM6.25 19.4902V21.4902H7.75V19.4902H6.25ZM13.1327 14.3929L16.6327 8.89289L15.3673 8.08758L11.8673 13.5876L13.1327 14.3929ZM5.75 3.99023V3.49023H4.25V3.99023H5.75ZM7 2.24023H19V0.740234H7V2.24023ZM20.25 3.49023V9.49023H21.75V3.49023H20.25ZM19 10.7402H18V12.2402H19V10.7402ZM20.25 9.49023C20.25 10.1806 19.6904 10.7402 19 10.7402V12.2402C20.5188 12.2402 21.75 11.009 21.75 9.49023H20.25ZM19 2.24023C19.6904 2.24023 20.25 2.79988 20.25 3.49023H21.75C21.75 1.97145 20.5188 0.740234 19 0.740234V2.24023ZM5.75 3.49023C5.75 2.79988 6.30964 2.24023 7 2.24023V0.740234C5.48122 0.740234 4.25 1.97145 4.25 3.49023H5.75ZM9 6.24023H17V4.74023H9V6.24023ZM9 9.24023H13V7.74023H9V9.24023Z" fill="currentColor"/>
</svg>
