<svg width="22" height="19" viewBox="0 0 22 19" fill="none" xmlns="http://www.w3.org/2000/svg">
<path d="M18 14.4902H16M18 4.49023H16M6 4.49023H4M6 14.4902H4M5 17.4902H17C19.2091 17.4902 21 15.6994 21 13.4902V5.49023C21 3.2811 19.2091 1.49023 17 1.49023H5C2.79086 1.49023 1 3.2811 1 5.49023V13.4902C1 15.6994 2.79086 17.4902 5 17.4902ZM13 9.49023C13 10.5948 12.1046 11.4902 11 11.4902C9.89543 11.4902 9 10.5948 9 9.49023C9 8.38566 9.89543 7.49023 11 7.49023C12.1046 7.49023 13 8.38566 13 9.49023Z" stroke="currentColor" stroke-width="1.5" stroke-linecap="round"/>
</svg>
