<svg width="22" height="23" viewBox="0 0 22 23" fill="none" xmlns="http://www.w3.org/2000/svg">
<path d="M17.5588 19.0391C16.5654 16.382 14.0036 14.4902 11 14.4902C7.99638 14.4902 5.4346 16.382 4.44117 19.0391M17.5588 19.0391C19.6672 17.2057 21 14.5036 21 11.4902C21 5.96739 16.5228 1.49023 11 1.49023C5.47715 1.49023 1 5.96739 1 11.4902C1 14.5036 2.33285 17.2057 4.44117 19.0391M17.5588 19.0391C15.8031 20.5659 13.5095 21.4902 11 21.4902C8.49052 21.4902 6.19694 20.5659 4.44117 19.0391M14 8.49023C14 10.1471 12.6569 11.4902 11 11.4902C9.34315 11.4902 8 10.1471 8 8.49023C8 6.83338 9.34315 5.49023 11 5.49023C12.6569 5.49023 14 6.83338 14 8.49023Z" stroke="currentColor" stroke-width="1.5" stroke-linejoin="round"/>
</svg>
