<svg width="22" height="21" viewBox="0 0 22 21" fill="none" xmlns="http://www.w3.org/2000/svg">
<path d="M19 9.49023H3M19 9.49023C20.1046 9.49023 21 10.3857 21 11.4902V15.4902C21 17.6994 19.2091 19.4902 17 19.4902H5C2.79086 19.4902 1 17.6994 1 15.4902V11.4902C1 10.3857 1.89543 9.49023 3 9.49023M19 9.49023V7.49023C19 6.38566 18.1046 5.49023 17 5.49023M3 9.49023V7.49023C3 6.38566 3.89543 5.49023 5 5.49023M17 5.49023H5M17 5.49023V3.49023C17 2.38566 16.1046 1.49023 15 1.49023H7C5.89543 1.49023 5 2.38566 5 3.49023V5.49023M9 12.4902H13" stroke="currentColor" stroke-width="1.5" stroke-linecap="round"/>
</svg>
