<svg width="22" height="23" viewBox="0 0 22 23" fill="none" xmlns="http://www.w3.org/2000/svg">
<path d="M9.03281 2.76165C9.8375 1.06643 12.1625 1.06643 12.9672 2.76164L14.3579 5.69141C14.6774 6.36458 15.2951 6.83117 16.0096 6.93912L19.1193 7.40893C20.9187 7.68077 21.6371 9.97978 20.3351 11.2993L18.0849 13.5798C17.5679 14.1038 17.332 14.8588 17.454 15.5987L17.9852 18.8188C18.2926 20.682 16.4116 22.1029 14.8022 21.2232L12.0208 19.7028C11.3817 19.3535 10.6183 19.3535 9.97917 19.7028L7.19776 21.2232C5.58839 22.1029 3.70742 20.682 4.01479 18.8188L4.54599 15.5987C4.66804 14.8588 4.43211 14.1038 3.91508 13.5798L1.66488 11.2993C0.362866 9.97978 1.08133 7.68077 2.88066 7.40893L5.99037 6.93912C6.70489 6.83117 7.32257 6.36458 7.64211 5.69141L9.03281 2.76165Z" stroke="currentColor" stroke-width="1.5" stroke-linejoin="round"/>
</svg>
