<svg width="22" height="18" viewBox="0 0 22 18" fill="none" xmlns="http://www.w3.org/2000/svg">
<path d="M16 16.9902H21V14.9902C21 13.3334 19.6569 11.9902 18 11.9902C17.0444 11.9902 16.1931 12.437 15.6438 13.1331M16 16.9902H6M16 16.9902V14.9902C16 14.334 15.8736 13.7073 15.6438 13.1331M6 16.9902H1V14.9902C1 13.3334 2.34315 11.9902 4 11.9902C4.95561 11.9902 5.80686 12.437 6.35625 13.1331M6 16.9902V14.9902C6 14.334 6.12642 13.7073 6.35625 13.1331M6.35625 13.1331C7.0935 11.2913 8.89482 9.99023 11 9.99023C13.1052 9.99023 14.9065 11.2913 15.6438 13.1331M14 3.99023C14 5.64709 12.6569 6.99023 11 6.99023C9.34315 6.99023 8 5.64709 8 3.99023C8 2.33338 9.34315 0.990234 11 0.990234C12.6569 0.990234 14 2.33338 14 3.99023ZM20 6.99023C20 8.0948 19.1046 8.99023 18 8.99023C16.8954 8.99023 16 8.0948 16 6.99023C16 5.88566 16.8954 4.99023 18 4.99023C19.1046 4.99023 20 5.88566 20 6.99023ZM6 6.99023C6 8.0948 5.10457 8.99023 4 8.99023C2.89543 8.99023 2 8.0948 2 6.99023C2 5.88566 2.89543 4.99023 4 4.99023C5.10457 4.99023 6 5.88566 6 6.99023Z" stroke="currentColor" stroke-width="1.5" stroke-linecap="round" stroke-linejoin="round"/>
</svg>
