<svg width="22" height="22" viewBox="0 0 22 22" fill="none" xmlns="http://www.w3.org/2000/svg">
<path d="M18.333 10.0833H3.66634M18.333 10.0833C19.3455 10.0833 20.1663 10.9041 20.1663 11.9167V15.5833C20.1663 17.6084 18.5247 19.25 16.4997 19.25H5.49967C3.47463 19.25 1.83301 17.6084 1.83301 15.5833V11.9167C1.83301 10.9041 2.65382 10.0833 3.66634 10.0833M18.333 10.0833V8.25C18.333 7.23748 17.5122 6.41667 16.4997 6.41667M3.66634 10.0833V8.25C3.66634 7.23748 4.48715 6.41667 5.49967 6.41667M16.4997 6.41667H5.49967M16.4997 6.41667V4.58333C16.4997 3.57081 15.6789 2.75 14.6663 2.75H7.33301C6.32049 2.75 5.49967 3.57081 5.49967 4.58333V6.41667M9.16634 12.8333H12.833" stroke="currentColor" stroke-width="1.5" stroke-linecap="round"/>
</svg>
