<svg width="22" height="22" viewBox="0 0 22 22" fill="none" xmlns="http://www.w3.org/2000/svg">
<mask id="path-1-inside-1_1491_28777" fill="currentColor">
<path d="M11 11C12.094 11 13.1432 10.5654 13.9168 9.79182C14.6904 9.01823 15.125 7.96902 15.125 6.875C15.125 5.78098 14.6904 4.73177 13.9168 3.95818C13.1432 3.1846 12.094 2.75 11 2.75C9.90598 2.75 8.85677 3.1846 8.08318 3.95818C7.3096 4.73177 6.875 5.78098 6.875 6.875C6.875 7.96902 7.3096 9.01823 8.08318 9.79182C8.85677 10.5654 9.90598 11 11 11ZM13.75 6.875C13.75 7.60435 13.4603 8.30382 12.9445 8.81954C12.4288 9.33527 11.7293 9.625 11 9.625C10.2707 9.625 9.57118 9.33527 9.05546 8.81954C8.53973 8.30382 8.25 7.60435 8.25 6.875C8.25 6.14565 8.53973 5.44618 9.05546 4.93046C9.57118 4.41473 10.2707 4.125 11 4.125C11.7293 4.125 12.4288 4.41473 12.9445 4.93046C13.4603 5.44618 13.75 6.14565 13.75 6.875ZM19.25 17.875C19.25 19.25 17.875 19.25 17.875 19.25H4.125C4.125 19.25 2.75 19.25 2.75 17.875C2.75 16.5 4.125 12.375 11 12.375C17.875 12.375 19.25 16.5 19.25 17.875ZM17.875 17.8695C17.8736 17.5312 17.6632 16.5138 16.731 15.5815C15.8345 14.685 14.1474 13.75 11 13.75C7.85125 13.75 6.1655 14.685 5.269 15.5815C4.33675 16.5138 4.12775 17.5312 4.125 17.8695H17.875Z"/>
</mask>
<path d="M11 11C12.094 11 13.1432 10.5654 13.9168 9.79182C14.6904 9.01823 15.125 7.96902 15.125 6.875C15.125 5.78098 14.6904 4.73177 13.9168 3.95818C13.1432 3.1846 12.094 2.75 11 2.75C9.90598 2.75 8.85677 3.1846 8.08318 3.95818C7.3096 4.73177 6.875 5.78098 6.875 6.875C6.875 7.96902 7.3096 9.01823 8.08318 9.79182C8.85677 10.5654 9.90598 11 11 11ZM13.75 6.875C13.75 7.60435 13.4603 8.30382 12.9445 8.81954C12.4288 9.33527 11.7293 9.625 11 9.625C10.2707 9.625 9.57118 9.33527 9.05546 8.81954C8.53973 8.30382 8.25 7.60435 8.25 6.875C8.25 6.14565 8.53973 5.44618 9.05546 4.93046C9.57118 4.41473 10.2707 4.125 11 4.125C11.7293 4.125 12.4288 4.41473 12.9445 4.93046C13.4603 5.44618 13.75 6.14565 13.75 6.875ZM19.25 17.875C19.25 19.25 17.875 19.25 17.875 19.25H4.125C4.125 19.25 2.75 19.25 2.75 17.875C2.75 16.5 4.125 12.375 11 12.375C17.875 12.375 19.25 16.5 19.25 17.875ZM17.875 17.8695C17.8736 17.5312 17.6632 16.5138 16.731 15.5815C15.8345 14.685 14.1474 13.75 11 13.75C7.85125 13.75 6.1655 14.685 5.269 15.5815C4.33675 16.5138 4.12775 17.5312 4.125 17.8695H17.875Z" fill="currentColor"/>
<path d="M11 2.75V1.25V2.75ZM11 9.625V11.125V9.625ZM8.25 6.875H6.75H8.25ZM11 4.125V2.625V4.125ZM17.875 17.8695V19.3695H19.3811L19.375 17.8634L17.875 17.8695ZM4.125 17.8695L2.62505 17.8573L2.61276 19.3695H4.125V17.8695ZM11 12.5C12.4918 12.5 13.9226 11.9074 14.9775 10.8525L12.8562 8.73116C12.3639 9.22344 11.6962 9.5 11 9.5V12.5ZM14.9775 10.8525C16.0324 9.79758 16.625 8.36684 16.625 6.875H13.625C13.625 7.57119 13.3484 8.23887 12.8562 8.73116L14.9775 10.8525ZM16.625 6.875C16.625 5.38316 16.0324 3.95242 14.9775 2.89752L12.8562 5.01884C13.3484 5.51113 13.625 6.17881 13.625 6.875H16.625ZM14.9775 2.89752C13.9226 1.84263 12.4918 1.25 11 1.25V4.25C11.6962 4.25 12.3639 4.52656 12.8562 5.01884L14.9775 2.89752ZM11 1.25C9.50816 1.25 8.07742 1.84263 7.02252 2.89752L9.14384 5.01884C9.63613 4.52656 10.3038 4.25 11 4.25V1.25ZM7.02252 2.89752C5.96763 3.95242 5.375 5.38316 5.375 6.875H8.375C8.375 6.17881 8.65156 5.51113 9.14384 5.01884L7.02252 2.89752ZM5.375 6.875C5.375 8.36684 5.96763 9.79758 7.02252 10.8525L9.14384 8.73116C8.65156 8.23887 8.375 7.57119 8.375 6.875H5.375ZM7.02252 10.8525C8.07742 11.9074 9.50816 12.5 11 12.5V9.5C10.3038 9.5 9.63613 9.22344 9.14384 8.73116L7.02252 10.8525ZM12.25 6.875C12.25 7.20652 12.1183 7.52446 11.8839 7.75888L14.0052 9.8802C14.8022 9.08317 15.25 8.00217 15.25 6.875H12.25ZM11.8839 7.75888C11.6495 7.9933 11.3315 8.125 11 8.125V11.125C12.1272 11.125 13.2082 10.6772 14.0052 9.8802L11.8839 7.75888ZM11 8.125C10.6685 8.125 10.3505 7.9933 10.1161 7.75888L7.9948 9.8802C8.79183 10.6772 9.87283 11.125 11 11.125V8.125ZM10.1161 7.75888C9.8817 7.52446 9.75 7.20652 9.75 6.875H6.75C6.75 8.00217 7.19777 9.08317 7.9948 9.8802L10.1161 7.75888ZM9.75 6.875C9.75 6.54348 9.8817 6.22554 10.1161 5.99112L7.9948 3.8698C7.19777 4.66683 6.75 5.74783 6.75 6.875H9.75ZM10.1161 5.99112C10.3505 5.7567 10.6685 5.625 11 5.625V2.625C9.87283 2.625 8.79183 3.07277 7.9948 3.8698L10.1161 5.99112ZM11 5.625C11.3315 5.625 11.6495 5.7567 11.8839 5.99112L14.0052 3.8698C13.2082 3.07277 12.1272 2.625 11 2.625V5.625ZM11.8839 5.99112C12.1183 6.22554 12.25 6.54348 12.25 6.875H15.25C15.25 5.74783 14.8022 4.66683 14.0052 3.8698L11.8839 5.99112ZM17.75 17.875C17.75 17.9563 17.734 17.9175 17.7871 17.8379C17.8339 17.7676 17.8856 17.7395 17.8917 17.7365C17.8919 17.7364 17.8739 17.7438 17.8432 17.7489C17.8315 17.7509 17.8249 17.7513 17.8272 17.7511C17.8286 17.751 17.8329 17.7508 17.8405 17.7505C17.8443 17.7504 17.849 17.7502 17.8548 17.7502C17.8576 17.7501 17.8607 17.7501 17.8641 17.75C17.8658 17.75 17.8675 17.75 17.8693 17.75C17.8703 17.75 17.8712 17.75 17.8721 17.75C17.8726 17.75 17.8733 17.75 17.8735 17.75C17.8743 17.75 17.875 17.75 17.875 19.25C17.875 20.75 17.8757 20.75 17.8765 20.75C17.8767 20.75 17.8775 20.75 17.878 20.75C17.879 20.75 17.8801 20.75 17.8812 20.75C17.8833 20.75 17.8856 20.75 17.8879 20.7499C17.8926 20.7499 17.8977 20.7499 17.9031 20.7498C17.9141 20.7496 17.9265 20.7493 17.9404 20.7488C17.9682 20.7479 18.002 20.7463 18.041 20.7435C18.1184 20.738 18.2193 20.7276 18.3364 20.7081C18.5636 20.6702 18.8894 20.5917 19.2333 20.4198C19.5831 20.2449 19.9786 19.9589 20.2832 19.502C20.5941 19.0356 20.75 18.4812 20.75 17.875H17.75ZM17.875 17.75H4.125V20.75H17.875V17.75ZM4.125 19.25C4.125 17.75 4.12573 17.75 4.12645 17.75C4.12669 17.75 4.12741 17.75 4.12788 17.75C4.12882 17.75 4.12975 17.75 4.13066 17.75C4.13247 17.75 4.13422 17.75 4.13591 17.75C4.13928 17.7501 4.14239 17.7501 4.14525 17.7502C4.15096 17.7502 4.1557 17.7504 4.15953 17.7505C4.16715 17.7508 4.17139 17.751 4.17279 17.7511C4.17507 17.7513 4.16853 17.7509 4.15675 17.7489C4.12609 17.7438 4.10812 17.7364 4.10832 17.7365C4.11439 17.7395 4.16609 17.7676 4.21292 17.8379C4.26601 17.9175 4.25 17.9563 4.25 17.875H1.25C1.25 18.4812 1.40587 19.0356 1.71677 19.502C2.02141 19.9589 2.41686 20.2449 2.76668 20.4198C3.11063 20.5917 3.43641 20.6702 3.66356 20.7081C3.78068 20.7276 3.88157 20.738 3.95905 20.7435C3.99804 20.7463 4.03182 20.7479 4.05959 20.7488C4.07349 20.7493 4.08595 20.7496 4.09687 20.7498C4.10233 20.7499 4.10741 20.7499 4.1121 20.7499C4.11444 20.75 4.11669 20.75 4.11884 20.75C4.11992 20.75 4.12097 20.75 4.122 20.75C4.12251 20.75 4.12326 20.75 4.12352 20.75C4.12426 20.75 4.125 20.75 4.125 19.25ZM4.25 17.875C4.25 17.5726 4.44457 16.583 5.35754 15.67C6.22655 14.801 7.87884 13.875 11 13.875V10.875C7.24616 10.875 4.77345 12.0115 3.23621 13.5487C1.74293 15.042 1.25 16.8024 1.25 17.875H4.25ZM11 13.875C14.1212 13.875 15.7735 14.801 16.6425 15.67C17.5554 16.583 17.75 17.5726 17.75 17.875H20.75C20.75 16.8024 20.2571 15.042 18.7638 13.5487C17.2265 12.0115 14.7538 10.875 11 10.875V13.875ZM19.375 17.8634C19.3721 17.1422 19.0126 15.7418 17.7917 14.5208L15.6703 16.6422C15.9815 16.9533 16.1621 17.2681 16.2641 17.517C16.3756 17.7892 16.3753 17.9364 16.375 17.8756L19.375 17.8634ZM17.7917 14.5208C16.5615 13.2907 14.4645 12.25 11 12.25V15.25C13.8302 15.25 15.1075 16.0793 15.6703 16.6422L17.7917 14.5208ZM11 12.25C7.53397 12.25 5.43839 13.2908 4.20834 14.5208L6.32966 16.6422C6.89261 16.0792 8.16853 15.25 11 15.25V12.25ZM4.20834 14.5208C2.98529 15.7439 2.63085 17.1435 2.62505 17.8573L5.62495 17.8817C5.6245 17.9375 5.62561 17.7877 5.73665 17.5165C5.83854 17.2675 6.01884 16.953 6.32966 16.6422L4.20834 14.5208ZM4.125 19.3695H17.875V16.3695H4.125V19.3695Z" fill="currentColor" mask="url(#path-1-inside-1_1491_28777)"/>
</svg>
