<svg width="22" height="22" viewBox="0 0 22 22" fill="none" xmlns="http://www.w3.org/2000/svg">
<g clip-path="url(#clip0_1491_28770)">
<path d="M3.66699 11.9166C5.30149 12.1109 6.82312 12.8494 7.98702 14.0133C9.15092 15.1772 9.88941 16.6988 10.0837 18.3333C10.8939 17.8662 11.5717 17.2001 12.0529 16.3982C12.5341 15.5962 12.8028 14.6847 12.8337 13.75C14.3728 13.2085 15.7169 12.2228 16.6959 10.9175C17.6749 9.61215 18.2448 8.04585 18.3337 6.41663C18.3337 5.68728 18.0439 4.98781 17.5282 4.47208C17.0125 3.95636 16.313 3.66663 15.5837 3.66663C13.9544 3.75546 12.3881 4.3254 11.0828 5.30439C9.7775 6.28338 8.79179 7.62744 8.25033 9.16663C7.31557 9.1975 6.40412 9.46623 5.60213 9.94742C4.80015 10.4286 4.13412 11.1064 3.66699 11.9166" stroke="currentColor" stroke-width="1.5" stroke-linecap="round" stroke-linejoin="round"/>
<path d="M6.41621 12.8334C5.46217 13.372 4.69073 14.1832 4.20077 15.1632C3.71082 16.1431 3.52467 17.247 3.66621 18.3334C4.75261 18.4749 5.85652 18.2888 6.83643 17.7988C7.81635 17.3089 8.62761 16.5374 9.16621 15.5834" stroke="currentColor" stroke-width="1.5" stroke-linecap="round" stroke-linejoin="round"/>
<path d="M13.7497 9.16671C14.2559 9.16671 14.6663 8.7563 14.6663 8.25004C14.6663 7.74378 14.2559 7.33337 13.7497 7.33337C13.2434 7.33337 12.833 7.74378 12.833 8.25004C12.833 8.7563 13.2434 9.16671 13.7497 9.16671Z" stroke="currentColor" stroke-width="1.5" stroke-linecap="round" stroke-linejoin="round"/>
</g>
<defs>
<clipPath id="clip0_1491_28770">
<rect width="22" height="22" fill="currentColor"/>
</clipPath>
</defs>
</svg>
