<svg width="22" height="22" viewBox="0 0 22 22" fill="none" xmlns="http://www.w3.org/2000/svg">
<path d="M17.0119 17.9198C16.1013 15.4842 13.753 13.75 10.9997 13.75C8.24635 13.75 5.89806 15.4842 4.98741 17.9198M17.0119 17.9198C18.9446 16.2392 20.1663 13.7623 20.1663 11C20.1663 5.93743 16.0623 1.83337 10.9997 1.83337C5.93706 1.83337 1.83301 5.93743 1.83301 11C1.83301 13.7623 3.05478 16.2392 4.98741 17.9198M17.0119 17.9198C15.4025 19.3194 13.3 20.1667 10.9997 20.1667C8.69932 20.1667 6.59687 19.3194 4.98741 17.9198M13.7497 8.25004C13.7497 9.76882 12.5185 11 10.9997 11C9.48089 11 8.24967 9.76882 8.24967 8.25004C8.24967 6.73126 9.48089 5.50004 10.9997 5.50004C12.5185 5.50004 13.7497 6.73126 13.7497 8.25004Z" stroke="currentColor" stroke-width="1.5" stroke-linejoin="round"/>
</svg>
