<svg width="22" height="22" viewBox="0 0 22 22" fill="none" xmlns="http://www.w3.org/2000/svg">
<path d="M8.25 11C9.34402 11 10.3932 10.5654 11.1668 9.79182C11.9404 9.01823 12.375 7.96902 12.375 6.875C12.375 5.78098 11.9404 4.73177 11.1668 3.95818C10.3932 3.1846 9.34402 2.75 8.25 2.75C7.15598 2.75 6.10677 3.1846 5.33318 3.95818C4.5596 4.73177 4.125 5.78098 4.125 6.875C4.125 7.96902 4.5596 9.01823 5.33318 9.79182C6.10677 10.5654 7.15598 11 8.25 11ZM11 6.875C11 7.60435 10.7103 8.30382 10.1945 8.81954C9.67882 9.33527 8.97935 9.625 8.25 9.625C7.52065 9.625 6.82118 9.33527 6.30546 8.81954C5.78973 8.30382 5.5 7.60435 5.5 6.875C5.5 6.14565 5.78973 5.44618 6.30546 4.93046C6.82118 4.41473 7.52065 4.125 8.25 4.125C8.97935 4.125 9.67882 4.41473 10.1945 4.93046C10.7103 5.44618 11 6.14565 11 6.875ZM16.5 17.875C16.5 19.25 15.125 19.25 15.125 19.25H1.375C1.375 19.25 0 19.25 0 17.875C0 16.5 1.375 12.375 8.25 12.375C15.125 12.375 16.5 16.5 16.5 17.875ZM15.125 17.8695C15.1236 17.5312 14.9132 16.5138 13.981 15.5815C13.0845 14.685 11.3974 13.75 8.25 13.75C5.10125 13.75 3.4155 14.685 2.519 15.5815C1.58675 16.5138 1.37775 17.5312 1.375 17.8695H15.125Z" fill="currentColor"/>
<path fill-rule="evenodd" clip-rule="evenodd" d="M18.5625 6.875C18.7448 6.875 18.9197 6.94743 19.0486 7.07636C19.1776 7.2053 19.25 7.38016 19.25 7.5625V9.625H21.3125C21.4948 9.625 21.6697 9.69743 21.7986 9.82636C21.9276 9.9553 22 10.1302 22 10.3125C22 10.4948 21.9276 10.6697 21.7986 10.7986C21.6697 10.9276 21.4948 11 21.3125 11H19.25V13.0625C19.25 13.2448 19.1776 13.4197 19.0486 13.5486C18.9197 13.6776 18.7448 13.75 18.5625 13.75C18.3802 13.75 18.2053 13.6776 18.0764 13.5486C17.9474 13.4197 17.875 13.2448 17.875 13.0625V11H15.8125C15.6302 11 15.4553 10.9276 15.3264 10.7986C15.1974 10.6697 15.125 10.4948 15.125 10.3125C15.125 10.1302 15.1974 9.9553 15.3264 9.82636C15.4553 9.69743 15.6302 9.625 15.8125 9.625H17.875V7.5625C17.875 7.38016 17.9474 7.2053 18.0764 7.07636C18.2053 6.94743 18.3802 6.875 18.5625 6.875Z" fill="currentColor"/>
</svg>
