<svg width="16" height="18" viewBox="0 0 16 18" fill="none" xmlns="http://www.w3.org/2000/svg">
<path d="M7.99967 11.5V13.1667M2.99967 16.5H12.9997C13.4417 16.5 13.8656 16.3244 14.1782 16.0118C14.4907 15.6993 14.6663 15.2754 14.6663 14.8333V9.83333C14.6663 9.39131 14.4907 8.96738 14.1782 8.65482C13.8656 8.34226 13.4417 8.16667 12.9997 8.16667H2.99967C2.55765 8.16667 2.13372 8.34226 1.82116 8.65482C1.5086 8.96738 1.33301 9.39131 1.33301 9.83333V14.8333C1.33301 15.2754 1.5086 15.6993 1.82116 16.0118C2.13372 16.3244 2.55765 16.5 2.99967 16.5ZM11.333 8.16667V4.83333C11.333 3.94928 10.9818 3.10143 10.3567 2.47631C9.73158 1.85119 8.88373 1.5 7.99967 1.5C7.11562 1.5 6.26777 1.85119 5.64265 2.47631C5.01753 3.10143 4.66634 3.94928 4.66634 4.83333V8.16667H11.333Z" stroke="currentColor" stroke-width="1.5" stroke-linecap="round" stroke-linejoin="round"/>
</svg>
