<svg width="17" height="18" viewBox="0 0 17 18" fill="none" xmlns="http://www.w3.org/2000/svg">
<path d="M16.0802 8.2875L9.18772 15.18C8.34333 16.0244 7.1981 16.4988 6.00397 16.4988C4.80983 16.4988 3.6646 16.0244 2.82022 15.18C1.97583 14.3356 1.50146 13.1904 1.50146 11.9963C1.50146 10.8021 1.97583 9.65688 2.82022 8.8125L9.71272 1.92C10.2756 1.35708 11.0391 1.04083 11.8352 1.04083C12.6313 1.04083 13.3948 1.35708 13.9577 1.92C14.5206 2.48292 14.8369 3.24641 14.8369 4.0425C14.8369 4.83859 14.5206 5.60208 13.9577 6.165L7.05772 13.0575C6.77626 13.339 6.39451 13.4971 5.99647 13.4971C5.59842 13.4971 5.21668 13.339 4.93522 13.0575C4.65376 12.776 4.49563 12.3943 4.49563 11.9963C4.49563 11.5982 4.65376 11.2165 4.93522 10.935L11.3027 4.575" stroke="currentColor" stroke-width="1.5" stroke-linecap="round" stroke-linejoin="round"/>
</svg>
