<svg fill="none" xmlns="http://www.w3.org/2000/svg" viewBox="4.94 4.94 48.13 48.13"> <path fill-rule="evenodd" clip-rule="evenodd" d="M29.5568 5.43811C42.3127 5.73426 52.5625 16.1729 52.5625 29C52.5625 42.0248 42.034 52.5871 28.9966 52.5625C15.9481 52.538 5.29309 41.8149 5.43761 28.7541C5.49658 23.0422 7.62994 17.5466 11.4403 13.291C12.108 12.5452 13.2539 12.4819 13.9996 13.1497C14.7454 13.8174 14.8087 14.9633 14.1409 15.709C10.9171 19.3096 9.11215 23.9594 9.06241 28.7921L9.06239 28.7936C8.93997 39.8273 17.9573 48.9167 29.0034 48.9375C40.0269 48.9583 48.9375 40.0294 48.9375 29C48.9375 18.5987 40.9724 10.0537 30.8125 9.1379V17.2188C30.8125 18.2198 30.001 19.0313 29 19.0313C27.999 19.0313 27.1875 18.2198 27.1875 17.2188V7.74684C27.1871 7.43829 27.2486 7.13279 27.3683 6.84843C27.4885 6.56305 27.665 6.3048 27.8871 6.08906C28.1092 5.87334 28.3726 5.70455 28.6614 5.59276C28.9467 5.48233 29.2511 5.42977 29.5568 5.43811Z" fill="#7136E6" stroke="#7136E6" stroke-linecap="round" stroke-linejoin="round"></path> <path d="M26.8456 31.2745L17.8984 18.4765C17.8983 18.4765 17.8983 18.4764 17.8983 18.4764C17.8417 18.3954 17.8155 18.297 17.8242 18.1986C17.8329 18.1001 17.876 18.0078 17.9459 17.9379C18.0158 17.868 18.1081 17.8249 18.2066 17.8162C18.305 17.8075 18.4034 17.8337 18.4844 17.8903C18.4844 17.8903 18.4845 17.8903 18.4845 17.8904L31.282 26.8373C31.959 27.326 32.4169 28.0613 32.5566 28.8846C32.6966 29.709 32.5063 30.5553 32.0271 31.2406C31.5478 31.9258 30.8181 32.3948 29.9957 32.5462C29.1741 32.6974 28.326 32.5193 27.6345 32.0506C27.3293 31.8387 27.0624 31.5762 26.8456 31.2745Z" fill="#7136E6" stroke="#7136E6"></path> </svg>