<svg width="16" height="15" viewBox="0 0 16 15" fill="none" xmlns="http://www.w3.org/2000/svg">
<path d="M8.00016 7.49998H7.50016C7.50016 7.7152 7.63788 7.90626 7.84205 7.97432L8.00016 7.49998ZM8.50016 4.16665C8.50016 3.8905 8.27631 3.66665 8.00016 3.66665C7.72402 3.66665 7.50016 3.8905 7.50016 4.16665H8.50016ZM9.84205 8.64099C10.104 8.72831 10.3872 8.58673 10.4745 8.32476C10.5618 8.06279 10.4202 7.77963 10.1583 7.69231L9.84205 8.64099ZM8.50016 7.49998V4.16665H7.50016V7.49998H8.50016ZM7.84205 7.97432L9.84205 8.64099L10.1583 7.69231L8.15828 7.02564L7.84205 7.97432ZM14.1668 7.49998C14.1668 10.9057 11.4059 13.6666 8.00016 13.6666V14.6666C11.9582 14.6666 15.1668 11.458 15.1668 7.49998H14.1668ZM8.00016 13.6666C4.59441 13.6666 1.8335 10.9057 1.8335 7.49998H0.833496C0.833496 11.458 4.04212 14.6666 8.00016 14.6666V13.6666ZM1.8335 7.49998C1.8335 4.09422 4.59441 1.33331 8.00016 1.33331V0.333313C4.04212 0.333313 0.833496 3.54194 0.833496 7.49998H1.8335ZM8.00016 1.33331C11.4059 1.33331 14.1668 4.09422 14.1668 7.49998H15.1668C15.1668 3.54194 11.9582 0.333313 8.00016 0.333313V1.33331Z"/>
</svg>
