<svg xmlns="http://www.w3.org/2000/svg" viewBox="0.75 0.75 16.5 16.5"> <path d="M10.5991 6.99153C10.8705 7.30439 11.3442 7.33794 11.6571 7.06648C11.9699 6.79501 12.0035 6.32132 11.732 6.00847L10.5991 6.99153ZM7.40095 11.0085C7.12948 10.6956 6.6558 10.6621 6.34294 10.9335C6.03008 11.205 5.99653 11.6787 6.268 11.9915L7.40095 11.0085ZM9.75 4.83333C9.75 4.41912 9.41421 4.08333 9 4.08333C8.58579 4.08333 8.25 4.41912 8.25 4.83333H9.75ZM8.25 13.1667C8.24999 13.5809 8.58577 13.9167 8.99998 13.9167C9.4142 13.9167 9.74999 13.5809 9.75 13.1667L8.25 13.1667ZM15.75 9C15.75 12.7279 12.7279 15.75 9 15.75V17.25C13.5563 17.25 17.25 13.5563 17.25 9H15.75ZM9 15.75C5.27208 15.75 2.25 12.7279 2.25 9H0.75C0.75 13.5563 4.44365 17.25 9 17.25V15.75ZM2.25 9C2.25 5.27208 5.27208 2.25 9 2.25V0.75C4.44365 0.75 0.75 4.44365 0.75 9H2.25ZM9 2.25C12.7279 2.25 15.75 5.27208 15.75 9H17.25C17.25 4.44365 13.5563 0.75 9 0.75V2.25ZM9 8.25C8.43706 8.25 7.96134 8.09653 7.64826 7.88781C7.32993 7.67559 7.25 7.46478 7.25 7.33333H5.75C5.75 8.12236 6.22971 8.74488 6.81621 9.13588C7.40795 9.53038 8.18223 9.75 9 9.75V8.25ZM7.25 7.33333C7.25 7.20188 7.32993 6.99108 7.64826 6.77886C7.96134 6.57014 8.43706 6.41667 9 6.41667V4.91667C8.18223 4.91667 7.40795 5.13629 6.81621 5.53078C6.22971 5.92178 5.75 6.54431 5.75 7.33333H7.25ZM9 6.41667C9.77037 6.41667 10.3456 6.69942 10.5991 6.99153L11.732 6.00847C11.121 5.30425 10.0803 4.91667 9 4.91667V6.41667ZM9 9.75C9.56294 9.75 10.0387 9.90347 10.3518 10.1122C10.6701 10.3244 10.75 10.5352 10.75 10.6667H12.25C12.25 9.87764 11.7703 9.25511 11.1838 8.86412C10.5921 8.46962 9.81777 8.25 9 8.25V9.75ZM8.25 4.83333V5.66667H9.75V4.83333H8.25ZM8.25002 12.3333L8.25 13.1667L9.75 13.1667L9.75002 12.3333L8.25002 12.3333ZM9.00002 11.5833C8.22965 11.5833 7.65441 11.3006 7.40095 11.0085L6.268 11.9915C6.87905 12.6958 7.91969 13.0833 9.00001 13.0833L9.00002 11.5833ZM10.75 10.6667C10.75 10.7981 10.6701 11.0089 10.3518 11.2211C10.0387 11.4299 9.56296 11.5833 9.00002 11.5833V13.0833C9.81779 13.0833 10.5921 12.8637 11.1838 12.4692C11.7703 12.0782 12.25 11.4557 12.25 10.6667H10.75ZM8.25 5.66667L8.25002 12.3333L9.75002 12.3333L9.75 5.66666L8.25 5.66667Z"></path> </svg>