<svg width="24" height="24" viewBox="0 0 24 24" fill="none" xmlns="http://www.w3.org/2000/svg">
<path d="M0.81875 10.75H3.25C3.91304 10.75 4.54893 11.0134 5.01777 11.4822C5.48661 11.9511 5.75 12.587 5.75 13.25V14.5C5.75 15.163 6.01339 15.7989 6.48223 16.2678C6.95107 16.7366 7.58696 17 8.25 17C8.91304 17 9.54893 17.2634 10.0178 17.7322C10.4866 18.2011 10.75 18.837 10.75 19.5V23.1812M7 1.91875V3.875C7 4.7038 7.32924 5.49866 7.91529 6.08471C8.50134 6.67076 9.2962 7 10.125 7H10.75C11.413 7 12.0489 7.26339 12.5178 7.73223C12.9866 8.20107 13.25 8.83696 13.25 9.5C13.25 10.163 13.5134 10.7989 13.9822 11.2678C14.4511 11.7366 15.087 12 15.75 12C16.413 12 17.0489 11.7366 17.5178 11.2678C17.9866 10.7989 18.25 10.163 18.25 9.5C18.25 8.83696 18.5134 8.20107 18.9822 7.73223C19.4511 7.26339 20.087 7 20.75 7H22.08M15.75 22.61V19.5C15.75 18.837 16.0134 18.2011 16.4822 17.7322C16.9511 17.2634 17.587 17 18.25 17H22.08M23.25 12C23.25 13.4774 22.959 14.9403 22.3936 16.3052C21.8283 17.6701 20.9996 18.9103 19.955 19.955C18.9103 20.9996 17.6701 21.8283 16.3052 22.3936C14.9403 22.959 13.4774 23.25 12 23.25C10.5226 23.25 9.05972 22.959 7.69481 22.3936C6.3299 21.8283 5.08971 20.9996 4.04505 19.955C3.00039 18.9103 2.17172 17.6701 1.60636 16.3052C1.04099 14.9403 0.75 13.4774 0.75 12C0.75 9.01631 1.93526 6.15483 4.04505 4.04505C6.15483 1.93526 9.01631 0.75 12 0.75C14.9837 0.75 17.8452 1.93526 19.955 4.04505C22.0647 6.15483 23.25 9.01631 23.25 12Z" stroke="currentColor" stroke-width="1.5" stroke-linecap="round" stroke-linejoin="round"/>
</svg>
