<svg fill="none" xmlns="http://www.w3.org/2000/svg" viewBox="3.13 3.13 51.75 51.75"> <path fill-rule="evenodd" clip-rule="evenodd" d="M29 7.25C17.871 7.25 7.25 17.0329 7.25 29C7.25 30.6737 7.80036 33.1435 8.60249 35.7943C9.38922 38.3942 10.3605 40.9871 11.0887 42.8357C11.4556 43.767 10.998 44.8195 10.0667 45.1864C9.13532 45.5533 8.08288 45.0957 7.71598 44.1643C6.97157 42.2747 5.96039 39.5789 5.13286 36.8442C4.32073 34.1603 3.625 31.2493 3.625 29C3.625 14.9396 15.9615 3.625 29 3.625C42.0385 3.625 54.375 14.9396 54.375 29C54.375 31.2551 53.6474 34.2287 52.8237 36.9324C51.9829 39.6922 50.9727 42.3853 50.2879 44.1543C49.9266 45.0878 48.8769 45.5516 47.9434 45.1903C47.0098 44.8289 46.546 43.7792 46.9074 42.8457C47.582 41.103 48.5543 38.5076 49.356 35.876C50.1749 33.1884 50.75 30.6678 50.75 29C50.75 17.0329 40.129 7.25 29 7.25Z" fill="#7136E6" stroke="#7136E6" stroke-linecap="round" stroke-linejoin="round"></path> <path fill-rule="evenodd" clip-rule="evenodd" d="M12.7063 28.5776C13.1781 28.5157 13.6574 28.548 14.1166 28.6727C14.5757 28.7975 15.0056 29.0121 15.3812 29.3042C15.7558 29.5955 16.0691 29.9581 16.3029 30.371C16.3035 30.3721 16.3041 30.3732 16.3047 30.3743L26.1453 47.6544C26.6164 48.4833 26.7439 49.4638 26.5003 50.3856C26.2567 51.3074 25.6614 52.0969 24.8422 52.5848L24.8358 52.5887L23.2794 53.4981C23.2791 53.4983 23.2788 53.4985 23.2785 53.4987C20.811 54.9421 17.8895 54.46 15.4027 53.0982C12.8857 51.7198 10.5112 49.3083 8.76936 46.246C7.02801 43.1845 6.15813 39.9011 6.23724 37.0155C6.31528 34.1689 7.35292 31.3826 9.81193 29.9428L11.3641 29.0358L12.2786 30.6007L11.3683 29.0333C11.7797 28.7944 12.2345 28.6395 12.7063 28.5776ZM13.1632 32.183L11.6435 33.071C11.6433 33.0712 11.6431 33.0713 11.6429 33.0714C10.6777 33.6369 9.92018 34.9518 9.86088 37.1149C9.80263 39.2395 10.4535 41.875 11.9203 44.4538C13.3867 47.0318 15.3095 48.9142 17.1438 49.9187C19.0081 50.9396 20.4917 50.9294 21.4486 50.3695L21.4495 50.3689L22.9885 49.4696C22.992 49.4671 22.9945 49.4635 22.9956 49.4594C22.9968 49.4548 22.9962 49.45 22.9939 49.446C22.9939 49.4459 22.9939 49.4458 22.9938 49.4458L13.1632 32.183Z" fill="#7136E6" stroke="#7136E6" stroke-miterlimit="10"></path> <path fill-rule="evenodd" clip-rule="evenodd" d="M45.7214 30.6007L46.6317 29.0333C46.2203 28.7944 45.7655 28.6395 45.2937 28.5776C44.822 28.5157 44.3426 28.548 43.8834 28.6727C43.4243 28.7975 42.9944 29.0121 42.6188 29.3042C42.2442 29.5955 41.931 29.958 41.6972 30.3709C41.6965 30.372 41.6959 30.3731 41.6953 30.3743L31.8547 47.6533C31.3835 48.4822 31.2561 49.4627 31.4997 50.3845C31.7433 51.3063 32.3386 52.0958 33.1578 52.5837L33.1642 52.5875L34.7206 53.497C34.7209 53.4972 34.7212 53.4973 34.7214 53.4975C34.7214 53.4975 34.7215 53.4975 34.7214 53.4975C37.1889 54.9409 40.1094 54.4589 42.5958 53.097C45.1121 51.7186 47.4863 49.3073 49.2301 46.2458C50.9742 43.1839 51.8442 39.9 51.7644 37.0141C51.6858 34.1672 50.6466 31.3815 48.1877 29.9426L46.6359 29.0358L45.7214 30.6007ZM44.8368 32.183L46.3568 33.0713C46.3571 33.0714 46.3573 33.0716 46.3576 33.0717C46.3576 33.0717 46.3577 33.0718 46.3578 33.0718C47.323 33.6372 48.0811 34.9521 48.1408 37.1143C48.1995 39.2383 47.5488 41.8734 46.0802 44.4517C44.6114 47.0305 42.6882 48.9131 40.8543 49.9177C38.9907 50.9384 37.5083 50.9282 36.5514 50.3683L35.0115 49.4684C35.008 49.466 35.0055 49.4624 35.0044 49.4582C35.0032 49.4537 35.0038 49.4488 35.0061 49.4447C35.0061 49.4447 35.0061 49.4447 35.0061 49.4447L44.8368 32.183Z" fill="#7136E6"></path> <path d="M34.7214 53.4975C34.7212 53.4973 34.7209 53.4972 34.7206 53.497L33.1642 52.5875L33.1578 52.5837C32.3386 52.0958 31.7433 51.3063 31.4997 50.3845C31.2561 49.4627 31.3835 48.4822 31.8547 47.6533L41.6953 30.3743C41.6959 30.3731 41.6965 30.372 41.6972 30.3709C41.931 29.958 42.2442 29.5955 42.6188 29.3042C42.9944 29.0121 43.4243 28.7975 43.8834 28.6727C44.3426 28.548 44.822 28.5157 45.2937 28.5776C45.7655 28.6395 46.2203 28.7944 46.6317 29.0333L45.7214 30.6007L46.6359 29.0358L48.1877 29.9426C50.6466 31.3815 51.6858 34.1672 51.7644 37.0141C51.8442 39.9 50.9742 43.1839 49.2301 46.2458C47.4863 49.3073 45.1121 51.7186 42.5958 53.097C40.1094 54.4589 37.1889 54.9409 34.7214 53.4975ZM34.7214 53.4975C34.7215 53.4975 34.7214 53.4975 34.7214 53.4975ZM35.0061 49.4447C35.0038 49.4488 35.0032 49.4537 35.0044 49.4582C35.0055 49.4624 35.008 49.466 35.0115 49.4684L36.5514 50.3683C37.5083 50.9282 38.9907 50.9384 40.8543 49.9177C42.6882 48.9131 44.6114 47.0305 46.0802 44.4517C47.5488 41.8734 48.1995 39.2383 48.1408 37.1143C48.0811 34.9521 47.323 33.6372 46.3578 33.0718C46.3577 33.0718 46.3576 33.0717 46.3576 33.0717C46.3573 33.0716 46.3571 33.0714 46.3568 33.0713L44.8368 32.183L35.0061 49.4447ZM35.0061 49.4447C35.0061 49.4447 35.0061 49.4447 35.0061 49.4447Z" stroke="#7136E6" stroke-miterlimit="10"></path> </svg>