<svg fill="none" xmlns="http://www.w3.org/2000/svg" viewBox="0.44 0.69 15.12 20.63"> <path d="M5.36971 21.3125C5.32244 21.3125 5.27518 21.3082 5.23221 21.2996C5.02596 21.2652 4.84549 21.1492 4.72517 20.9773C4.60486 20.8055 4.5576 20.5949 4.59627 20.3887L5.79939 13.75H1.12439C0.857988 13.75 0.617362 13.5996 0.505644 13.359C0.389628 13.1184 0.424003 12.8348 0.591581 12.6285L10.006 0.992578C10.1564 0.803516 10.3842 0.6875 10.6291 0.6875C10.6592 0.6875 10.6978 0.6875 10.7279 0.691797C10.9385 0.717578 11.1232 0.825 11.2564 0.992578C11.3853 1.16016 11.4455 1.36641 11.4197 1.57695C11.4197 1.58984 11.4154 1.60273 11.4154 1.61562L10.1994 8.25H14.8744C15.1408 8.25 15.3814 8.40039 15.4931 8.64102C15.6092 8.88164 15.5748 9.16523 15.4072 9.37148L5.99275 21.0117C5.84236 21.2008 5.61033 21.3125 5.36971 21.3125ZM2.56385 12.375H6.62439C6.82635 12.375 7.01971 12.4652 7.15291 12.6199C7.28182 12.7746 7.33767 12.9809 7.3033 13.1828L6.35799 18.3691L13.4349 9.625H9.37439C9.17244 9.625 8.97908 9.53477 8.84588 9.37578C8.71697 9.22109 8.66111 9.01055 8.69549 8.81289L9.64509 3.62227L2.56385 12.375Z"></path> </svg>