<svg width="16" height="22" viewBox="0 0 16 22" fill="none" xmlns="http://www.w3.org/2000/svg">
<path d="M13.4167 7.75033C13.4167 6.31374 12.846 4.93599 11.8302 3.92016C10.8144 2.90434 9.43661 2.33366 8.00002 2.33366C6.56343 2.33366 5.18568 2.90434 4.16986 3.92016C3.15404 4.93599 2.58335 6.31374 2.58335 7.75033C2.58335 9.62016 4.38169 13.2006 8.00002 18.2077C11.6184 13.2006 13.4167 9.62016 13.4167 7.75033ZM8.00002 21.8337C2.9441 15.2362 0.416687 10.5421 0.416687 7.75033C0.416687 5.7391 1.21564 3.81025 2.63779 2.3881C4.05994 0.965948 5.9888 0.166992 8.00002 0.166992C10.0112 0.166992 11.9401 0.965948 13.3622 2.3881C14.7844 3.81025 15.5834 5.7391 15.5834 7.75033C15.5834 10.5421 13.0559 15.2362 8.00002 21.8337ZM8.00002 12.0837C6.85075 12.0837 5.74855 11.6271 4.93589 10.8145C4.12323 10.0018 3.66669 8.8996 3.66669 7.75033C3.66669 6.60105 4.12323 5.49885 4.93589 4.6862C5.74855 3.87354 6.85075 3.41699 8.00002 3.41699C9.14929 3.41699 10.2515 3.87354 11.0641 4.6862C11.8768 5.49885 12.3334 6.60105 12.3334 7.75033C12.3334 8.8996 11.8768 10.0018 11.0641 10.8145C10.2515 11.6271 9.14929 12.0837 8.00002 12.0837ZM8.00002 9.91699C8.57466 9.91699 9.12576 9.68872 9.53209 9.28239C9.93841 8.87606 10.1667 8.32496 10.1667 7.75033C10.1667 7.17569 9.93841 6.62459 9.53209 6.21826C9.12576 5.81193 8.57466 5.58366 8.00002 5.58366C7.42538 5.58366 6.87428 5.81193 6.46796 6.21826C6.06163 6.62459 5.83335 7.17569 5.83335 7.75033C5.83335 8.32496 6.06163 8.87606 6.46796 9.28239C6.87428 9.68872 7.42538 9.91699 8.00002 9.91699Z"/>
</svg>
