<svg fill="none" xmlns="http://www.w3.org/2000/svg" viewBox="5.83 2.33 16.33 23.33"> <path d="M19.8333 10.4999C19.8333 8.95282 19.2188 7.46909 18.1248 6.37513C17.0308 5.28117 15.5471 4.66659 14 4.66659C12.4529 4.66659 10.9692 5.28117 9.87521 6.37513C8.78125 7.46909 8.16667 8.95282 8.16667 10.4999C8.16667 12.5136 10.1033 16.3694 14 21.7618C17.8967 16.3694 19.8333 12.5136 19.8333 10.4999ZM14 25.6666C8.55517 18.5616 5.83333 13.5064 5.83333 10.4999C5.83333 8.33398 6.69375 6.25676 8.2253 4.72521C9.75684 3.19367 11.8341 2.33325 14 2.33325C16.1659 2.33325 18.2432 3.19367 19.7747 4.72521C21.3063 6.25676 22.1667 8.33398 22.1667 10.4999C22.1667 13.5064 19.4448 18.5616 14 25.6666ZM14 15.1666C12.7623 15.1666 11.5753 14.6749 10.7002 13.7998C9.825 12.9246 9.33333 11.7376 9.33333 10.4999C9.33333 9.26224 9.825 8.07526 10.7002 7.20009C11.5753 6.32492 12.7623 5.83325 14 5.83325C15.2377 5.83325 16.4247 6.32492 17.2998 7.20009C18.175 8.07526 18.6667 9.26224 18.6667 10.4999C18.6667 11.7376 18.175 12.9246 17.2998 13.7998C16.4247 14.6749 15.2377 15.1666 14 15.1666ZM14 12.8333C14.6188 12.8333 15.2123 12.5874 15.6499 12.1498C16.0875 11.7122 16.3333 11.1188 16.3333 10.4999C16.3333 9.88108 16.0875 9.28759 15.6499 8.85C15.2123 8.41242 14.6188 8.16659 14 8.16659C13.3812 8.16659 12.7877 8.41242 12.3501 8.85C11.9125 9.28759 11.6667 9.88108 11.6667 10.4999C11.6667 11.1188 11.9125 11.7122 12.3501 12.1498C12.7877 12.5874 13.3812 12.8333 14 12.8333Z" fill="#7136E6"></path> </svg>