<svg fill="none" xmlns="http://www.w3.org/2000/svg" viewBox="0.17 0.42 21.67 15.17"> <path d="M4.06452 2.58366L10.2904 8.13033C10.4888 8.30698 10.7452 8.40458 11.0109 8.40458C11.2765 8.40458 11.5329 8.30698 11.7313 8.13033L17.9583 2.58366H4.06452ZM19.6667 3.96274L13.1732 9.74883C12.5779 10.2794 11.8083 10.5726 11.0109 10.5726C10.2134 10.5726 9.44384 10.2794 8.84852 9.74883L2.33335 3.94216V13.417H19.6667V3.96274ZM2.33335 0.416992H19.6667C20.2413 0.416992 20.7924 0.645265 21.1988 1.05159C21.6051 1.45792 21.8334 2.00902 21.8334 2.58366V13.417C21.8334 13.9916 21.6051 14.5427 21.1988 14.9491C20.7924 15.3554 20.2413 15.5837 19.6667 15.5837H2.33335C1.75872 15.5837 1.20762 15.3554 0.801289 14.9491C0.39496 14.5427 0.166687 13.9916 0.166687 13.417V2.58366C0.166687 2.00902 0.39496 1.45792 0.801289 1.05159C1.20762 0.645265 1.75872 0.416992 2.33335 0.416992V0.416992Z" ></path> </svg>