<svg fill="none" xmlns="http://www.w3.org/2000/svg" viewBox="2.33 5.83 23.33 16.33"> <path d="M6.531 8.16659L13.2358 14.1399C13.4495 14.3302 13.7256 14.4353 14.0117 14.4353C14.2977 14.4353 14.5738 14.3302 14.7875 14.1399L21.4935 8.16659H6.531ZM23.3333 9.65175L16.3403 15.8829C15.6992 16.4543 14.8704 16.77 14.0117 16.77C13.1529 16.77 12.3241 16.4543 11.683 15.8829L4.66667 9.62959V19.8333H23.3333V9.65175ZM4.66667 5.83325H23.3333C23.9522 5.83325 24.5457 6.07908 24.9833 6.51667C25.4208 6.95425 25.6667 7.54775 25.6667 8.16659V19.8333C25.6667 20.4521 25.4208 21.0456 24.9833 21.4832C24.5457 21.9208 23.9522 22.1666 23.3333 22.1666H4.66667C4.04783 22.1666 3.45434 21.9208 3.01675 21.4832C2.57917 21.0456 2.33333 20.4521 2.33333 19.8333V8.16659C2.33333 7.54775 2.57917 6.95425 3.01675 6.51667C3.45434 6.07908 4.04783 5.83325 4.66667 5.83325V5.83325Z" fill="#7136E6"></path> </svg>