<svg fill="none" xmlns="http://www.w3.org/2000/svg" viewBox="0.63 0.63 50.75 50.75"> <path d="M31.7897 49.8801L31.7865 49.8775L31.7459 49.851L19.1717 41.6495L19.1119 41.6104L19.0471 41.5803C18.2777 41.2225 17.3951 41.2453 16.6459 41.6111L16.5904 41.6382L16.5387 41.672L5.53905 48.8427L5.51238 48.8601L5.50202 48.8653L5.4943 48.8691L5.48665 48.8731C5.10567 49.0719 4.67498 49.1788 4.25 49.1788C2.80853 49.1788 1.625 47.9953 1.625 46.5538V13.0452C1.625 12.0948 2.13083 11.2348 2.95536 10.7648L2.987 10.7468L3.01724 10.7265L15.7325 2.19687C15.7709 2.17311 15.8034 2.15141 15.8233 2.13812L15.827 2.13569C15.8365 2.12933 15.8435 2.12467 15.8488 2.12118C17.103 1.47498 18.5949 1.45929 19.8524 2.07807C19.8979 2.10359 19.9372 2.12322 19.9576 2.13339L19.9624 2.13576C19.9704 2.13978 19.9761 2.14268 19.9801 2.14469L32.8237 10.3755L32.8886 10.4171L32.9591 10.4482C33.7157 10.7825 34.5753 10.7641 35.3112 10.4137L35.3711 10.3852L35.4268 10.349L46.4604 3.16693L46.4878 3.14909L46.498 3.14396L46.5057 3.14011L46.5133 3.13612C46.8943 2.93735 47.325 2.8304 47.75 2.8304C48.4515 2.8304 49.1102 3.10129 49.5972 3.59648L49.5972 3.59651L49.6031 3.60235C50.0976 4.09688 50.375 4.76107 50.375 5.4554V38.9527C50.375 39.9139 49.8592 40.7802 49.0323 41.2386L48.9992 41.257L48.9675 41.2778L35.9662 49.8322C35.9608 49.8355 35.9557 49.8387 35.9509 49.8417L35.9255 49.8577L35.9245 49.8581L35.88 49.8813C35.2443 50.213 34.5425 50.3796 33.8391 50.3796C33.1478 50.3796 32.464 50.2247 31.8485 49.9123C31.8291 49.9013 31.8125 49.8923 31.8005 49.8858L31.7897 49.8801ZM5.48515 48.8804C5.48644 48.8794 5.48771 48.8785 5.48896 48.8775L5.48515 48.8804ZM32.5454 48.4338L32.6095 48.4756L32.6792 48.5071C33.4174 48.8411 34.292 48.8434 35.0393 48.4876L35.1015 48.458L35.159 48.4201L48.1263 39.8884C48.1318 39.885 48.1369 39.8818 48.1417 39.8789L48.167 39.8629L48.75 39.6297V38.9527V5.46673V3.62276L47.2045 4.6286L36.2402 11.7645L36.2163 11.774L36.1692 11.799C34.9235 12.4585 33.4173 12.4828 32.1347 11.8565C32.0899 11.8314 32.0512 11.8121 32.0311 11.802L32.0263 11.7996C32.0182 11.7956 32.0124 11.7926 32.0084 11.7906L19.1644 3.57093L19.0998 3.52955L19.0296 3.49852C18.273 3.16423 17.4134 3.18259 16.6775 3.53301L16.6113 3.56455L16.5503 3.60542L3.86911 12.1124C3.83069 12.1361 3.79815 12.1578 3.77823 12.1711L3.7746 12.1735C3.74693 12.192 3.74042 12.1961 3.7355 12.1991L3.25 12.4904V13.0566V46.5538V48.3999L4.79627 47.3914L15.7392 40.2547L15.7657 40.2375L15.7762 40.2322L15.7864 40.2271L15.7965 40.2218C17.0631 39.5518 18.5791 39.5373 19.8617 40.1734C19.879 40.1832 19.8939 40.1913 19.905 40.1972L19.9157 40.203L19.9191 40.2057L19.9599 40.2323L32.5454 48.4338Z" fill="#7136E6" stroke="#7136E6" stroke-width="2"></path> </svg>