<svg xmlns="http://www.w3.org/2000/svg" version="1.1" xmlns:xlink="http://www.w3.org/1999/xlink" width="512" height="512" x="0" y="0" viewBox="0 0 512 512" style="enable-background:new 0 0 512 512" xml:space="preserve" class=""><g><path d="M473.563 227.063 407.5 161 262.75 305.75c-25 25-49.563 41-74.5 16-25-25-9-49.5 16-74.5L349 102.5l-65.063-65.094c-14.188-14.188-2-37.906 19-37.906h170.625C494.5-.5 511.5 16.469 511.5 37.406v170.688c0 20.937-23.687 33.187-37.937 18.969zM63.5 447.5h320V259.313l64 64V447.5c0 35.375-28.625 64-64 64h-320c-35.375 0-64-28.625-64-64v-320c0-35.344 28.625-64 64-64h124.188l64 64H63.5z"></path></g></svg>