<svg fill="none" xmlns="http://www.w3.org/2000/svg" viewBox="1.75 1.75 24.5 24.5"> <path fill-rule="evenodd" clip-rule="evenodd" d="M7.48439 2.13909C7.66784 2.28317 7.87386 2.477 8.1109 2.71113C8.61873 3.21094 9.20789 4.01172 9.71344 4.78047C10.2246 5.55784 10.6983 6.37618 10.9639 6.94577L10.964 6.94613L10.9642 6.94649C11.1147 7.27012 11.2503 7.56339 11.3457 7.82042C11.4425 8.08144 11.523 8.36855 11.5235 8.68187C11.5246 9.3377 11.1686 9.84387 10.8257 10.3107C10.7272 10.4449 10.6435 10.5548 10.5713 10.6495C10.4159 10.8537 10.3139 10.9875 10.2323 11.1423C10.1527 11.2933 10.1295 11.4024 10.1671 11.5779C10.2215 11.831 10.4577 12.3849 10.9163 13.1097C11.3599 13.8105 11.9671 14.601 12.6927 15.3243C13.4182 16.0475 14.1961 16.6387 14.883 17.0666C15.5908 17.5075 16.1359 17.7338 16.3963 17.7893C16.5775 17.8279 16.6906 17.8038 16.8419 17.725C17.0015 17.6419 17.1435 17.5335 17.3644 17.3649C17.4511 17.2987 17.5501 17.2231 17.6671 17.1362L17.6672 17.136L17.6761 17.1295C18.1445 16.7814 18.665 16.3947 19.3248 16.3954C19.6507 16.3958 19.9433 16.4878 20.2009 16.593C20.447 16.6934 20.7297 16.8359 21.0399 16.9921L21.0659 17.0052C21.6095 17.2793 22.4178 17.7437 23.2003 18.2499C23.969 18.7473 24.7801 19.3278 25.2851 19.8366L25.2859 19.8374C25.5206 20.0745 25.715 20.2805 25.8594 20.4639C25.9992 20.6414 26.1526 20.8711 26.2174 21.1567C26.2903 21.4784 26.2242 21.7461 26.1564 21.9318C26.1259 22.0155 26.0899 22.0958 26.064 22.1533C26.06 22.1623 26.056 22.171 26.0522 22.1796C26.0281 22.2328 26.0072 22.2794 25.9849 22.3326L25.9844 22.3339L25.9838 22.3352C25.7552 22.8772 25.4772 23.397 25.1532 23.888L25.1523 23.8895L25.1513 23.891C24.5182 24.842 23.9227 25.4634 22.997 25.8946C22.5159 26.1187 21.8286 26.345 20.7604 26.2118C19.733 26.0837 18.3963 25.6288 16.572 24.6071L16.5716 24.6068C13.6523 22.9696 11.6267 21.5581 9.01371 18.9524C6.40839 16.3543 5.12781 14.6587 3.33393 11.3998C1.528 8.11907 1.53058 6.09592 2.04632 4.99387C2.47934 4.06856 3.10696 3.47576 4.05486 2.84601L4.05672 2.84477L4.0586 2.84353C4.55013 2.52059 5.0702 2.24334 5.6123 2.01525L5.61409 2.0145L5.61588 2.01376C5.66953 1.99146 5.71645 1.97043 5.7701 1.94638C5.77851 1.94261 5.78709 1.93876 5.79589 1.93483C5.85354 1.90903 5.93393 1.87316 6.01758 1.84278C6.20298 1.77543 6.47012 1.70965 6.79127 1.78206C7.07679 1.84644 7.3065 1.99938 7.48439 2.13909ZM6.28934 3.62898C5.84699 3.81522 5.42258 4.04146 5.02139 4.30488C4.22062 4.83712 3.87735 5.20993 3.63134 5.73562C3.46785 6.08497 3.16529 7.46448 4.86701 10.5559C6.58078 13.6692 7.76114 15.2319 10.2494 17.7132C12.7299 20.1868 14.6209 21.5063 17.4272 23.0802C19.1445 24.042 20.2578 24.3856 20.977 24.4752C21.6554 24.5598 22.0112 24.4233 22.258 24.3083C22.7878 24.0615 23.1623 23.7206 23.6936 22.9226C23.9577 22.5221 24.1844 22.0982 24.3709 21.6562C24.3961 21.5961 24.4207 21.5405 24.4416 21.4941C24.36 21.3972 24.235 21.2633 24.0427 21.0691C23.6792 20.703 23.0046 20.2077 22.2497 19.7193C21.5085 19.2397 20.7551 18.8084 20.2782 18.5679C19.934 18.3945 19.7135 18.2842 19.5395 18.2132C19.3702 18.1441 19.321 18.1454 19.3229 18.1454C19.3387 18.1454 19.2847 18.1145 18.7109 18.5408C18.6523 18.5844 18.5889 18.6329 18.5218 18.6844C18.2662 18.8803 17.9566 19.1177 17.6499 19.2773C17.1916 19.5159 16.6654 19.6361 16.0312 19.5008C15.4762 19.3824 14.7277 19.0315 13.9578 18.552C13.167 18.0595 12.2833 17.3872 11.4573 16.5637C10.6314 15.7405 9.9442 14.8461 9.43756 14.0455C8.946 13.2688 8.57626 12.5048 8.45613 11.9452C8.31936 11.308 8.44406 10.7819 8.68424 10.3263C8.83901 10.0327 9.07038 9.7293 9.26081 9.47962C9.31684 9.40616 9.36932 9.33735 9.41527 9.2748C9.7831 8.77395 9.77447 8.69412 9.77353 8.68541C9.7735 8.68512 9.77348 8.68491 9.77348 8.68477C9.77345 8.6679 9.76956 8.60331 9.70492 8.42905C9.63881 8.25084 9.5359 8.02531 9.37746 7.68458C9.16109 7.22054 8.73696 6.48058 8.25127 5.74202C7.75996 4.99491 7.2532 4.32224 6.88291 3.95794L6.88229 3.95732L6.88166 3.95671C6.68627 3.7637 6.55189 3.63863 6.45487 3.5572C6.40773 3.57827 6.35093 3.60336 6.28934 3.62898Z" fill="#7136E6"></path> </svg>