<svg fill="none" xmlns="http://www.w3.org/2000/svg" viewBox="3.63 3.65 50.75 50.71"> <path fill-rule="evenodd" clip-rule="evenodd" d="M45.7184 4.01536C48.1496 3.58387 50.4767 3.48894 52.366 3.94981C52.7906 4.05177 53.1776 4.27194 53.4823 4.5849C53.7834 4.89424 53.9917 5.28162 54.0839 5.70302C54.5275 7.64827 54.4355 9.99512 54.0027 12.4449C53.5644 14.9258 52.7545 17.6347 51.6585 20.3539C49.4745 25.7725 46.0847 31.4015 41.9997 35.4652C40.799 36.6732 39.5123 37.7919 38.1499 38.8125C38.2391 41.0366 37.9854 43.3379 37.079 45.4181L37.0781 45.4201C35.6094 48.7793 32.9634 50.8886 30.4149 52.1984C27.8738 53.5044 25.3197 54.0754 23.804 54.319C23.3754 54.3882 22.9366 54.358 22.5215 54.2306C22.1064 54.1033 21.7262 53.8822 21.4101 53.5844C21.0941 53.2866 20.8508 52.9202 20.699 52.5134C20.5472 52.1066 20.4909 51.6703 20.5346 51.2384C20.5351 51.2332 20.5357 51.2281 20.5362 51.2229L21.3347 43.9482C21.2538 43.9401 21.173 43.9316 21.0922 43.9226C20.2026 43.8308 19.3721 43.4336 18.7423 42.7985C18.7409 42.797 18.7394 42.7956 18.738 42.7941L15.197 39.2531C15.1955 39.2517 15.1941 39.2502 15.1926 39.2488C14.5577 38.6193 14.1605 37.7893 14.0684 36.9001C14.059 36.8152 14.0501 36.7302 14.0416 36.6452L6.76017 37.4445L6.75268 37.4453L6.74707 37.4459C6.31451 37.4902 5.87757 37.4343 5.4701 37.2826C5.06261 37.1308 4.69556 36.8873 4.39738 36.5708C4.09919 36.2544 3.87786 35.8735 3.75056 35.4578C3.62325 35.042 3.5934 34.6025 3.6633 34.1733L3.66383 34.1701C3.91271 32.6592 4.48635 30.109 5.79425 27.5694C7.10555 25.0231 9.21407 22.379 12.5708 20.9031L12.5756 20.901C14.6567 19.9931 16.9704 19.7398 19.2082 19.8375C20.229 18.4801 21.3469 17.198 22.5532 16.0012C26.6287 11.9296 32.3428 8.54139 37.7971 6.35882C40.5346 5.26337 43.2525 4.45299 45.7184 4.01536ZM39.1438 9.72436C34.0144 11.777 28.7555 14.9282 25.1133 18.5677L25.1084 18.5725C23.8076 19.8627 22.6214 21.2636 21.5633 22.7594C21.1901 23.2871 20.564 23.576 19.9203 23.5178C17.7141 23.3182 15.6731 23.5054 14.0277 24.2224C11.6661 25.2616 10.0834 27.1583 9.01699 29.2291C8.19548 30.8242 7.71548 32.4581 7.43925 33.7232L15.5483 32.833C16.0575 32.7771 16.5665 32.9392 16.9496 33.2794C17.3326 33.6195 17.5538 34.1058 17.5585 34.618C17.5643 35.2492 17.6022 35.8797 17.6721 36.5071C17.6728 36.5134 17.6734 36.5197 17.6741 36.5261C17.6798 36.5824 17.7049 36.6351 17.7452 36.6749L17.7527 36.6824L21.3086 40.2383L21.316 40.2457C21.3559 40.286 21.4085 40.3111 21.4649 40.3168C21.4717 40.3175 21.4785 40.3182 21.4853 40.3189C22.1088 40.3885 22.7353 40.4264 23.3626 40.4325C23.8747 40.4375 24.3607 40.6588 24.7006 41.0418C25.0405 41.4247 25.2025 41.9336 25.1467 42.4426L24.2573 50.5462C25.5223 50.2737 27.1599 49.7955 28.7579 48.9743C30.83 47.9093 32.7245 46.3278 33.7561 43.9693C34.475 42.3191 34.6619 40.2874 34.4725 38.0878C34.4172 37.4454 34.7073 36.822 35.2343 36.4506C36.7342 35.3938 38.1388 34.2078 39.4321 32.9062L39.4398 32.8986C43.0992 29.2595 46.2483 24.0799 48.2963 18.9987C49.3167 16.4672 50.0463 14.0026 50.4329 11.8142C50.7463 10.0404 50.8207 8.52389 50.6861 7.32969C49.5613 7.20283 48.0966 7.27493 46.3518 7.58458C44.1758 7.97079 41.6987 8.70202 39.1438 9.72436ZM23.228 50.74C23.2272 50.7402 23.2265 50.7403 23.2258 50.7404L23.2274 50.7401C23.2276 50.7401 23.2278 50.7401 23.228 50.74ZM37.2525 17.7595C36.6543 17.7595 36.0695 17.9369 35.5721 18.2693C35.0747 18.6017 34.687 19.0741 34.4581 19.6268C34.2292 20.1795 34.1693 20.7877 34.2861 21.3744C34.4029 21.9612 34.691 22.5001 35.1141 22.9231L33.8322 24.2052L35.1156 22.9246C35.396 23.2056 35.7291 23.4285 36.0958 23.5806C36.4625 23.7328 36.8555 23.8111 37.2525 23.8111C37.6495 23.8111 38.0426 23.7328 38.4093 23.5806C38.776 23.4285 39.1091 23.2056 39.3895 22.9246L39.391 22.9231C39.8141 22.5001 40.1022 21.9612 40.219 21.3744C40.3357 20.7877 40.2759 20.1795 40.047 19.6268C39.8181 19.0741 39.4304 18.6017 38.933 18.2693C38.4356 17.9369 37.8508 17.7595 37.2525 17.7595ZM32.5505 25.486C31.6207 24.5562 30.9875 23.3716 30.7308 22.0819C30.4741 20.792 30.6057 19.4549 31.109 18.2398C31.6122 17.0246 32.4645 15.986 33.5581 15.2553C34.6516 14.5245 35.9373 14.1345 37.2525 14.1345C38.5678 14.1345 39.8535 14.5245 40.947 15.2553C42.0406 15.986 42.8929 17.0246 43.3961 18.2398C43.8994 19.4549 44.031 20.792 43.7743 22.0819C43.5177 23.3712 42.8848 24.5554 41.9555 25.4851C41.3384 26.1036 40.6053 26.5942 39.7983 26.929C38.9913 27.2637 38.1262 27.4361 37.2525 27.4361C36.3789 27.4361 35.5138 27.2637 34.7068 26.929C33.9002 26.5944 33.1675 26.104 32.5505 25.486Z" fill="#7136E6"></path> <path fill-rule="evenodd" clip-rule="evenodd" d="M14.2192 39.6541C14.3411 40.6477 13.6346 41.552 12.641 41.6739C11.9136 41.7632 11.2368 42.0927 10.7178 42.6101C10.5437 42.7857 10.2626 43.2673 9.98514 44.1758C9.72513 45.0271 9.53048 46.0394 9.38884 47.0438C9.3005 47.6703 9.2352 48.276 9.18721 48.8127C9.72441 48.7647 10.3306 48.6993 10.9575 48.6108C11.9621 48.4691 12.9742 48.2743 13.8249 48.0141C14.7351 47.7356 15.2147 47.454 15.3873 47.2812L15.3904 47.2781C15.9089 46.7619 16.2383 46.0859 16.3254 45.3594C16.4446 44.3656 17.3469 43.6565 18.3408 43.7756C19.3347 43.8948 20.0438 44.7972 19.9246 45.7911C19.7405 47.3262 19.0447 48.7545 17.9494 49.8457C17.1235 50.6709 15.9275 51.1617 14.8852 51.4805C13.7825 51.8178 12.5646 52.045 11.464 52.2003C10.3552 52.3568 9.31886 52.4466 8.5627 52.4976C8.18334 52.5231 7.87138 52.5391 7.65227 52.5487C7.54265 52.5535 7.45608 52.5567 7.39572 52.5588C7.36553 52.5598 7.34188 52.5605 7.32516 52.561L7.30533 52.5616L7.29673 52.5618C7.29644 52.5618 7.29618 52.5619 7.25 50.7499C5.43809 50.7037 5.4381 50.7035 5.4381 50.7032L5.43833 50.6946L5.4389 50.6748C5.4394 50.6581 5.44014 50.6344 5.44117 50.6043C5.44323 50.5439 5.44646 50.4574 5.45127 50.3478C5.46088 50.1289 5.47681 49.8171 5.50234 49.4379C5.55322 48.6821 5.64303 47.6462 5.79935 46.5377C5.95451 45.4374 6.1814 44.2197 6.51824 43.1169C6.83698 42.0734 7.3274 40.8768 8.15139 40.05L8.15445 40.047C9.2454 38.9575 10.669 38.2638 12.1993 38.0759C13.1929 37.954 14.0972 38.6605 14.2192 39.6541ZM7.25 50.7499L5.43809 50.7037C5.42543 51.2003 5.61712 51.6803 5.96836 52.0316C6.3196 52.3828 6.79961 52.5745 7.29618 52.5619L7.25 50.7499Z" fill="#7136E6"></path> </svg>