<svg width="22" height="20" viewBox="0 0 22 20" fill="none" xmlns="http://www.w3.org/2000/svg">
<path d="M11.9501 1.92708C11.6511 1.00608 10.3481 1.00608 10.0481 1.92708L8.52912 6.60108C8.46369 6.80173 8.33646 6.97654 8.16564 7.10048C7.99482 7.22442 7.78917 7.29113 7.57812 7.29108H2.66412C1.69612 7.29108 1.29212 8.53108 2.07612 9.10108L6.05212 11.9891C6.22291 12.1132 6.35002 12.2883 6.41523 12.4891C6.48043 12.6899 6.4804 12.9063 6.41512 13.1071L4.89712 17.7811C4.59712 18.7021 5.65212 19.4691 6.43512 18.8991L10.4111 16.0111C10.582 15.8869 10.7878 15.8199 10.9991 15.8199C11.2104 15.8199 11.4162 15.8869 11.5871 16.0111L15.5631 18.8991C16.3461 19.4691 17.4011 18.7031 17.1011 17.7811L15.5831 13.1071C15.5178 12.9063 15.5178 12.6899 15.583 12.4891C15.6482 12.2883 15.7753 12.1132 15.9461 11.9891L19.9221 9.10108C20.7051 8.53108 20.3031 7.29108 19.3341 7.29108H14.4191C14.2082 7.29092 14.0028 7.22411 13.8322 7.10018C13.6616 6.97626 13.5345 6.80157 13.4691 6.60108L11.9501 1.92708Z" stroke="currentColor" stroke-width="1.5" stroke-linecap="round" stroke-linejoin="round"/>
</svg>
