<svg fill="none" xmlns="http://www.w3.org/2000/svg" viewBox="0 0 58 58"> <g clip-path="url(#clip0_32_344)"> <path fill-rule="evenodd" clip-rule="evenodd" d="M35.4319 9.02223C39.0275 5.4521 44.6419 4.50481 49.0301 6.38353L49.0367 6.38639L49.0434 6.38929C49.3281 6.5139 49.5781 6.70614 49.7716 6.94926C49.9651 7.19233 50.0963 7.47904 50.1539 7.78455C50.2114 8.08999 50.1935 8.40482 50.1018 8.70169C50.0101 8.99831 49.8474 9.26813 49.6278 9.48771C49.6276 9.48789 49.6274 9.48808 49.6272 9.48827L43.8664 15.2491C43.8659 15.2496 43.8654 15.2502 43.8648 15.2507C43.6305 15.4872 43.499 15.8067 43.499 16.1397C43.499 16.4729 43.6306 16.7925 43.8651 17.029C43.8655 17.0295 43.866 17.0299 43.8664 17.0304L46.4053 19.5704C46.4059 19.571 46.4065 19.5716 46.4071 19.5722C46.644 19.8066 46.9638 19.9382 47.2972 19.9382C47.6305 19.9382 47.9504 19.8066 48.1873 19.5722C48.1879 19.5716 48.1884 19.571 48.189 19.5704L53.9778 13.7793L53.9786 13.7786L53.9793 13.7779C54.1931 13.5645 54.4544 13.405 54.7417 13.3123C55.0292 13.2195 55.3345 13.1964 55.6326 13.2446C55.9306 13.2928 56.213 13.411 56.4566 13.5897C56.7001 13.7683 56.8978 14.0021 57.0334 14.2719L57.0386 14.2824L57.0438 14.293C58.0057 16.2711 58.2101 18.808 57.7948 21.2044C57.3763 23.6192 56.2908 26.115 54.4088 27.9689C50.8502 31.4747 45.7465 31.5495 41.6728 30.4611L41.6713 30.4607C41.4525 30.402 41.2219 30.4041 41.0042 30.4667C40.7865 30.5293 40.59 30.6501 40.4358 30.816L40.4337 30.8183L22.0758 50.4386C21.4957 51.0827 20.7912 51.603 20.0047 51.9679C19.2116 52.336 18.3518 52.5384 17.4778 52.5629C16.6037 52.5873 15.7339 52.4332 14.9215 52.11C14.1091 51.7869 13.3711 51.3014 12.7527 50.6833C12.1343 50.0652 11.6484 49.3275 11.3248 48.5152C11.0012 47.7029 10.8467 46.8332 10.8707 45.9592C10.8946 45.0852 11.0966 44.2252 11.4643 43.4319C11.8294 42.6441 12.3502 41.9385 12.9954 41.3575L32.5837 23.1551L32.5856 23.1533C32.7543 22.9974 32.8767 22.798 32.9392 22.5769C33.0016 22.3559 33.0018 22.1219 32.9396 21.9007L32.9396 21.9006C31.7849 17.7924 31.8244 12.6035 35.4317 9.02243M44.9055 9.0835C42.4398 8.92034 39.8185 9.775 37.9859 11.5947L37.9857 11.5949C35.7298 13.8342 35.4362 17.3859 36.4293 20.9195M44.9055 9.0835L41.2979 12.6911L41.2961 12.6929C40.3853 13.6088 39.874 14.848 39.874 16.1397C39.874 17.4315 40.3853 18.6707 41.2961 19.5866L41.2978 19.5882L43.8481 22.1397L43.8504 22.142C44.7666 23.0523 46.0057 23.5632 47.2972 23.5632C48.5887 23.5632 49.8278 23.0523 50.744 22.142L50.7462 22.1398L54.3677 18.5168C54.3918 19.1685 54.3475 19.8671 54.2231 20.5853C53.9044 22.4239 53.0969 24.1728 51.8649 25.3865C49.6284 27.5898 46.1165 27.8958 42.6099 26.9593C41.7547 26.73 40.8531 26.7382 40.0022 26.983C39.1523 27.2274 38.385 27.6986 37.7827 28.346C37.7819 28.3468 37.7811 28.3476 37.7803 28.3485L19.4022 47.9904L19.3886 48.0055C19.1343 48.2898 18.8247 48.5192 18.4788 48.6798C18.1328 48.8403 17.7577 48.9286 17.3765 48.9393C16.9952 48.9499 16.6158 48.8827 16.2614 48.7417C15.907 48.6008 15.585 48.389 15.3153 48.1194C15.0455 47.8497 14.8336 47.5279 14.6924 47.1736C14.5513 46.8193 14.4838 46.4399 14.4943 46.0586C14.5048 45.6773 14.5929 45.3022 14.7532 44.9562C14.9136 44.6101 15.1429 44.3004 15.427 44.046L15.4395 44.0348L35.0455 25.8159C35.0464 25.8151 35.0472 25.8144 35.048 25.8137C35.7062 25.2047 36.1836 24.4258 36.4275 23.5627C36.6717 22.6987 36.6723 21.7841 36.4293 20.9197" fill="#7136E6"></path> <path fill-rule="evenodd" clip-rule="evenodd" d="M25.0313 25.2851C24.9979 25.3001 24.9675 25.3211 24.9416 25.3471C24.9358 25.3528 24.93 25.3586 24.9242 25.3643L23.1564 27.0881C23.1294 27.1155 23.1055 27.1456 23.085 27.178C23.0673 27.2208 23.0616 27.2678 23.0688 27.3139C23.077 27.366 23.1011 27.4142 23.1378 27.4519C23.3183 27.6281 23.5204 27.8263 23.7629 28.064C24.3698 28.6591 25.2299 29.5024 26.6387 30.8725C27.3563 31.5704 27.3722 32.7179 26.6743 33.4355C25.9764 34.1532 24.8289 34.1691 24.1113 33.4712C22.697 32.0957 21.8242 31.24 21.2166 30.6442C20.9736 30.4059 20.7729 30.2092 20.597 30.0374C20.5933 30.0338 20.5896 30.0301 20.5858 30.0264C19.9995 29.4438 19.6145 28.6892 19.4871 27.8725C19.3598 27.0558 19.4966 26.2198 19.8777 25.4863C19.8858 25.4707 19.8941 25.4553 19.9027 25.4399C20.0922 25.0997 20.3285 24.7878 20.6047 24.5132C20.6089 24.5091 20.613 24.5051 20.6171 24.501L22.386 22.7762C22.7252 22.4387 23.1233 22.1661 23.5606 21.9718L23.5629 21.9708C24.2699 21.6579 25.0544 21.5642 25.8151 21.7019C26.5744 21.8393 27.2751 22.2009 27.827 22.74C28.4462 23.3411 29.5776 24.4419 31.6118 26.4241C32.3288 27.1227 32.3436 28.2702 31.645 28.9871C30.9464 29.704 29.7989 29.7189 29.082 29.0203C27.0453 27.0357 25.9158 25.9368 25.2998 25.3389L25.2942 25.3334C25.26 25.2999 25.2166 25.2775 25.1695 25.269C25.1228 25.2605 25.0747 25.2661 25.0313 25.2851Z" fill="#7136E6"></path> <path fill-rule="evenodd" clip-rule="evenodd" d="M34.5911 31.7642C35.273 31.0313 36.4198 30.9899 37.1527 31.6718C41.7964 35.9923 47.384 41.0723 49.5364 42.8652C49.8937 43.1608 50.1855 43.5276 50.3932 43.9423C50.6017 44.3587 50.7208 44.8141 50.7427 45.2793C50.7647 45.7445 50.689 46.2092 50.5206 46.6434C50.3524 47.0771 50.0954 47.4708 49.766 47.7994C49.7657 47.7997 49.7653 47.8001 49.765 47.8004L45.9856 51.5787C45.9819 51.5823 45.9783 51.586 45.9746 51.5896C45.9733 51.5908 45.9721 51.592 45.9709 51.5932C45.6411 51.9155 45.2492 52.1672 44.819 52.3332C44.3888 52.4991 43.9294 52.5758 43.4686 52.5585C43.0079 52.5413 42.5554 52.4305 42.1389 52.2328C41.7223 52.0351 41.3503 51.7547 41.0456 51.4087C41.0413 51.4038 41.037 51.3989 41.0327 51.394C39.1943 49.2609 34.1761 43.8618 29.8509 39.3429C29.1587 38.6197 29.1839 37.4724 29.907 36.7803C30.6302 36.0881 31.7775 36.1132 32.4697 36.8364C36.6711 41.226 41.5827 46.5041 43.6077 48.8301L46.9836 45.4552C44.6021 43.4443 39.1611 38.4918 34.6835 34.3258C33.9506 33.6439 33.9092 32.497 34.5911 31.7642Z" fill="#7136E6"></path> <path fill-rule="evenodd" clip-rule="evenodd" d="M22.6948 9.08655C21.6074 9.16085 20.5369 9.40668 19.5236 9.81628L19.5213 9.81719C15.2933 11.5196 12.7903 13.8822 12.197 14.4633C11.5007 15.1514 10.8519 15.8858 10.2552 16.6615C10.256 16.7372 10.263 16.8503 10.2778 17.0548C10.2785 17.0638 10.2792 17.0732 10.2799 17.0829C10.2968 17.3149 10.3275 17.7358 10.2686 18.1635C10.2002 18.6602 9.99827 19.2877 9.45336 19.8145C9.4498 19.8179 9.44623 19.8213 9.44264 19.8247C8.71986 20.5121 7.78637 20.7131 7.2082 20.7781C6.77284 20.8311 6.33104 20.7858 5.91543 20.6452C5.90226 20.6407 5.88912 20.6362 5.87603 20.6315L4.16868 22.3L7.73626 25.7821L9.35385 24.2025C9.31317 24.1265 9.27533 24.0489 9.24042 23.9699C9.05829 23.5574 8.95967 23.113 8.95024 22.6622C8.94081 22.2114 9.02076 21.7632 9.18548 21.3435C9.3502 20.9237 9.59643 20.5408 9.90994 20.2167C9.91317 20.2134 9.91641 20.2101 9.91966 20.2068C10.1283 19.9944 10.3664 19.8132 10.6266 19.6687C11.5781 19.1313 12.6724 18.9006 13.76 19.0084C13.7655 19.0089 13.771 19.0095 13.7765 19.0101C14.3884 19.0764 15.4071 19.3175 16.595 20.0387C17.5981 20.6478 19.139 21.8177 21.2856 23.8933L21.8713 23.3147C20.4385 21.8481 19.4887 20.7584 18.9048 19.82C18.5416 19.2365 18.2914 18.6697 18.1536 18.0672C18.0172 17.4711 18.0123 16.9301 18.0353 16.4508L18.0355 16.4483C18.1606 13.9209 18.9919 11.703 21.0784 10.0518L21.0843 10.0472C21.5312 9.6965 22.0854 9.36979 22.6948 9.08655ZM28.3779 11.7989C27.8128 11.681 27.2337 11.6455 26.6584 11.6934L26.6555 11.6937C25.4587 11.7915 23.9881 12.3781 23.3248 12.8968C22.2643 13.7375 21.744 14.8539 21.6561 16.6268C21.6408 16.9461 21.655 17.1176 21.6873 17.2588C21.7182 17.3939 21.7862 17.5894 21.9824 17.9046C22.4167 18.6025 23.3133 19.6382 25.217 21.5425C25.2404 21.5659 25.2631 21.5899 25.2852 21.6145C25.7277 22.1085 25.9613 22.755 25.9367 23.4177C25.9123 24.0753 25.6357 24.698 25.1646 25.1568L23.1065 27.19L23.1016 27.1948C22.6232 27.664 21.9816 27.9296 21.3115 27.9359C20.6414 27.9422 19.9949 27.6888 19.5077 27.2287C19.4951 27.2168 19.4826 27.2047 19.4704 27.1925C17.0405 24.7626 15.4894 23.6083 14.7136 23.1373C14.0233 22.7181 13.5255 22.6303 13.3934 22.6148C13.1793 22.5948 12.9645 22.6161 12.7604 22.6763C12.9642 22.8851 13.1273 23.1303 13.241 23.3994C13.3626 23.6873 13.4253 23.9966 13.4253 24.309C13.4253 24.6215 13.3626 24.9308 13.241 25.2186C13.1197 25.5057 12.9422 25.7657 12.7189 25.9831C12.7183 25.9837 12.7178 25.9842 12.7172 25.9848L9.39963 29.2245C9.18116 29.4415 8.92205 29.6135 8.63706 29.7305C8.35153 29.8477 8.04573 29.9074 7.7372 29.9063C7.12722 29.9071 6.54023 29.672 6.09936 29.2498C6.09698 29.2475 6.0946 29.2452 6.09224 29.2429C6.09052 29.2412 6.0888 29.2396 6.08709 29.2379L0.698302 23.9783C0.681841 23.9622 0.665687 23.9458 0.649848 23.9291C0.232546 23.4896 -0.000108719 22.9066 -0.000108719 22.3006C-0.000108719 21.6945 0.232546 21.1115 0.649848 20.672L1.9643 21.9199L0.697517 20.6236L4.02525 17.3717C4.02617 17.3708 4.02709 17.3699 4.02801 17.369C4.25119 17.1503 4.51582 16.9784 4.80637 16.8634C5.08861 16.7516 5.38974 16.6958 5.69304 16.6988C6.02048 16.6994 6.34114 16.7681 6.63592 16.8973C6.62831 16.7084 6.62705 16.4895 6.64568 16.2696C6.68404 15.817 6.81251 15.2287 7.21597 14.6701C7.22333 14.6599 7.2308 14.6498 7.23837 14.6398C7.97516 13.6632 8.78192 12.7414 9.65227 11.8817L9.65736 11.8767C10.4279 11.1216 13.3247 8.40465 18.1663 6.45496C19.8334 5.78132 21.6148 5.43585 23.4128 5.43751C26.4598 5.43777 28.8565 6.76465 29.869 7.68175C29.88 7.69171 29.8909 7.7018 29.9016 7.71203C30.4033 8.18937 30.8626 8.70939 31.2742 9.26624C31.7504 9.91037 31.7473 10.7907 31.2666 11.4314C30.7859 12.0722 29.9416 12.3214 29.1899 12.0444C28.9244 11.9465 28.6532 11.8645 28.3779 11.7989ZM7.2007 17.4841L6.06848 18.6642L7.21808 17.5021L7.2007 17.4841ZM7.22617 17.4939L7.20881 17.4757L7.32307 17.3566C7.32988 17.3628 7.33658 17.3692 7.34315 17.3757L7.22617 17.4939Z" fill="#7136E6"></path> </g> <defs> <clipPath id="clip0_32_344"> <rect width="58" height="58" fill="white"></rect> </clipPath> </defs> </svg>