<svg xmlns="http://www.w3.org/2000/svg" version="1.1" xmlns:xlink="http://www.w3.org/1999/xlink" x="0" y="0" style="enable-background:new 0 0 512 512" xml:space="preserve" class="" viewBox="2 2 20 20"><g><path d="M7 4a2 2 0 0 1 2-2h6a2 2 0 0 1 2 2v2h4a1 1 0 1 1 0 2h-1.069l-.867 12.142A2 2 0 0 1 17.069 22H6.93a2 2 0 0 1-1.995-1.858L4.07 8H3a1 1 0 0 1 0-2h4zm2 2h6V4H9zM6.074 8l.857 12H17.07l.857-12zM10 10a1 1 0 0 1 1 1v6a1 1 0 1 1-2 0v-6a1 1 0 0 1 1-1zm4 0a1 1 0 0 1 1 1v6a1 1 0 1 1-2 0v-6a1 1 0 0 1 1-1z" class=""></path></g></svg>