<svg fill="none" xmlns="http://www.w3.org/2000/svg" viewBox="3.13 3.13 51.75 51.75"> <path fill-rule="evenodd" clip-rule="evenodd" d="M29 7.25C17.871 7.25 7.25 17.0329 7.25 29C7.25 30.6737 7.80036 33.1435 8.60249 35.7943C9.38922 38.3942 10.3605 40.9871 11.0887 42.8357C11.4556 43.767 10.998 44.8195 10.0667 45.1864C9.13532 45.5533 8.08288 45.0957 7.71598 44.1643C6.97157 42.2747 5.96039 39.5789 5.13286 36.8442C4.32073 34.1603 3.625 31.2493 3.625 29C3.625 14.9396 15.9615 3.625 29 3.625C42.0385 3.625 54.375 14.9396 54.375 29C54.375 31.2551 53.6474 34.2287 52.8237 36.9324C51.9829 39.6922 50.9727 42.3853 50.2879 44.1543C49.9266 45.0878 48.8769 45.5516 47.9434 45.1903C47.0098 44.8289 46.546 43.7792 46.9074 42.8457C47.582 41.103 48.5543 38.5076 49.356 35.876C50.1749 33.1884 50.75 30.6678 50.75 29C50.75 17.0329 40.129 7.25 29 7.25Z" fill="currentColor" stroke="currentColor" stroke-linecap="round" stroke-linejoin="round"></path> <path fill-rule="evenodd" clip-rule="evenodd" d="M12.7063 28.5774C13.1781 28.5155 13.6574 28.5479 14.1166 28.6726C14.5758 28.7973 15.0056 29.012 15.3812 29.304C15.7558 29.5954 16.0691 29.9579 16.3029 30.3709C16.3035 30.372 16.3041 30.3731 16.3047 30.3741L26.1453 47.6543C26.6165 48.4832 26.7439 49.4637 26.5003 50.3855C26.2567 51.3073 25.6614 52.0968 24.8423 52.5847L24.8358 52.5885L23.2794 53.498C23.2791 53.4982 23.2788 53.4984 23.2785 53.4986C20.811 54.9419 17.8896 54.4599 15.4027 53.0981C12.8857 51.7197 10.5112 49.3082 8.76938 46.2459C7.02803 43.1844 6.15814 39.901 6.23725 37.0154C6.31529 34.1688 7.35293 31.3825 9.81194 29.9427L11.3641 29.0357L12.2786 30.6006L11.3683 29.0332C11.7797 28.7943 12.2345 28.6393 12.7063 28.5774ZM13.1632 32.1829L11.6436 33.0709C11.6433 33.071 11.6431 33.0712 11.6429 33.0713C10.6777 33.6368 9.92019 34.9517 9.86089 37.1148C9.80264 39.2393 10.4536 41.8749 11.9203 44.4537C13.3867 47.0316 15.3095 48.9141 17.1438 49.9186C19.0081 50.9395 20.4917 50.9293 21.4486 50.3693L21.4495 50.3688L22.9885 49.4695C22.992 49.467 22.9945 49.4634 22.9956 49.4592C22.9968 49.4547 22.9962 49.4499 22.994 49.4458C22.9939 49.4458 22.9939 49.4457 22.9939 49.4457L13.1632 32.1829Z" fill="currentColor" stroke="currentColor" stroke-miterlimit="10"></path> <path fill-rule="evenodd" clip-rule="evenodd" d="M45.7215 30.6006L46.6317 29.0332C46.2203 28.7943 45.7655 28.6393 45.2937 28.5774C44.822 28.5155 44.3426 28.5479 43.8834 28.6726C43.4243 28.7973 42.9944 29.012 42.6188 29.304C42.2442 29.5953 41.931 29.9579 41.6972 30.3708C41.6965 30.3719 41.6959 30.373 41.6953 30.3741L31.8547 47.6532C31.3836 48.482 31.2561 49.4626 31.4997 50.3844C31.7433 51.3061 32.3386 52.0957 33.1578 52.5835L33.1642 52.5874L34.7206 53.4969C34.7209 53.4971 34.7212 53.4972 34.7215 53.4974C34.7214 53.4974 34.7215 53.4974 34.7215 53.4974C37.1889 54.9408 40.1094 54.4587 42.5958 53.0968C45.1121 51.7185 47.4863 49.3072 49.2301 46.2457C50.9742 43.1837 51.8442 39.8999 51.7645 37.014C51.6858 34.1671 50.6466 31.3813 48.1877 29.9425L46.6359 29.0357L45.7215 30.6006ZM44.8368 32.1829L46.3569 33.0711C46.3571 33.0713 46.3573 33.0714 46.3576 33.0716C46.3576 33.0716 46.3577 33.0717 46.3578 33.0717C47.323 33.6371 48.0811 34.9519 48.1408 37.1142C48.1996 39.2382 47.5488 41.8733 46.0802 44.4516C44.6114 47.0304 42.6882 48.913 40.8543 49.9175C38.9907 50.9383 37.5083 50.9281 36.5514 50.3682L35.0115 49.4683C35.008 49.4659 35.0055 49.4623 35.0044 49.4581C35.0032 49.4535 35.0038 49.4487 35.0061 49.4446C35.0061 49.4446 35.0061 49.4446 35.0061 49.4446L44.8368 32.1829Z" fill="currentColor"></path> <path d="M34.7215 53.4974C34.7212 53.4972 34.7209 53.4971 34.7206 53.4969L33.1642 52.5874L33.1578 52.5835C32.3386 52.0957 31.7433 51.3061 31.4997 50.3844C31.2561 49.4626 31.3836 48.482 31.8547 47.6532L41.6953 30.3741C41.6959 30.373 41.6965 30.3719 41.6972 30.3708C41.931 29.9579 42.2442 29.5953 42.6188 29.304C42.9944 29.012 43.4243 28.7973 43.8834 28.6726C44.3426 28.5479 44.822 28.5155 45.2937 28.5774C45.7655 28.6393 46.2203 28.7943 46.6317 29.0332L45.7215 30.6006L46.6359 29.0357L48.1877 29.9425C50.6466 31.3813 51.6858 34.1671 51.7645 37.014C51.8442 39.8999 50.9742 43.1837 49.2301 46.2457C47.4863 49.3072 45.1121 51.7185 42.5958 53.0968C40.1094 54.4587 37.1889 54.9408 34.7215 53.4974ZM34.7215 53.4974C34.7215 53.4974 34.7214 53.4974 34.7215 53.4974ZM35.0061 49.4446C35.0038 49.4487 35.0032 49.4535 35.0044 49.4581C35.0055 49.4623 35.008 49.4659 35.0115 49.4683L36.5514 50.3682C37.5083 50.9281 38.9907 50.9383 40.8543 49.9175C42.6882 48.913 44.6114 47.0304 46.0802 44.4516C47.5488 41.8733 48.1996 39.2382 48.1408 37.1142C48.0811 34.9519 47.323 33.6371 46.3578 33.0717C46.3577 33.0717 46.3576 33.0716 46.3576 33.0716C46.3573 33.0714 46.3571 33.0713 46.3569 33.0711L44.8368 32.1829L35.0061 49.4446ZM35.0061 49.4446C35.0061 49.4446 35.0061 49.4446 35.0061 49.4446Z" stroke="currentColor" stroke-miterlimit="10"></path> </svg>