<svg fill="none" xmlns="http://www.w3.org/2000/svg" viewBox="3.63 3.65 50.75 50.71"> <path fill-rule="evenodd" clip-rule="evenodd" d="M45.7184 4.0156C48.1496 3.58412 50.4767 3.48918 52.366 3.95005C52.7906 4.05201 53.1776 4.27218 53.4823 4.58515C53.7834 4.89449 53.9917 5.28187 54.0839 5.70326C54.5275 7.64851 54.4355 9.99536 54.0027 12.4452C53.5644 14.926 52.7545 17.6349 51.6585 20.3541C49.4745 25.7727 46.0847 31.4017 41.9997 35.4655C40.799 36.6734 39.5123 37.7921 38.1499 38.8128C38.2391 41.0368 37.9854 43.3382 37.079 45.4183L37.0781 45.4203C35.6094 48.7796 32.9634 50.8889 30.4149 52.1987C27.8738 53.5046 25.3197 54.0756 23.804 54.3192C23.3754 54.3885 22.9366 54.3583 22.5215 54.2309C22.1064 54.1035 21.7262 53.8824 21.4101 53.5846C21.0941 53.2869 20.8508 52.9204 20.699 52.5136C20.5472 52.1068 20.4909 51.6706 20.5346 51.2386C20.5351 51.2335 20.5357 51.2283 20.5362 51.2232L21.3347 43.9484C21.2538 43.9403 21.173 43.9318 21.0922 43.9228C20.2026 43.831 19.3721 43.4338 18.7423 42.7987C18.7409 42.7973 18.7394 42.7958 18.738 42.7943L15.197 39.2533C15.1955 39.2519 15.1941 39.2505 15.1926 39.249C14.5577 38.6195 14.1605 37.7896 14.0684 36.9004C14.059 36.8154 14.0501 36.7304 14.0416 36.6454L6.76017 37.4448L6.75268 37.4456L6.74707 37.4462C6.31451 37.4905 5.87757 37.4346 5.4701 37.2828C5.06261 37.1311 4.69556 36.8875 4.39738 36.5711C4.09919 36.2546 3.87786 35.8738 3.75056 35.458C3.62325 35.0422 3.5934 34.6027 3.6633 34.1736L3.66383 34.1704C3.91271 32.6595 4.48635 30.1093 5.79425 27.5696C7.10555 25.0234 9.21407 22.3792 12.5708 20.9033L12.5756 20.9012C14.6567 19.9934 16.9704 19.74 19.2082 19.8377C20.229 18.4803 21.3469 17.1982 22.5532 16.0015C26.6287 11.9298 32.3428 8.54164 37.7971 6.35907C40.5346 5.26362 43.2525 4.45324 45.7184 4.0156ZM39.1438 9.72461C34.0144 11.7772 28.7555 14.9284 25.1133 18.568L25.1084 18.5728C23.8076 19.863 22.6214 21.2638 21.5633 22.7596C21.1901 23.2873 20.564 23.5763 19.9203 23.518C17.7141 23.3184 15.6731 23.5056 14.0277 24.2227C11.6661 25.2618 10.0834 27.1586 9.01699 29.2293C8.19548 30.8245 7.71548 32.4583 7.43925 33.7234L15.5483 32.8332C16.0575 32.7773 16.5665 32.9395 16.9496 33.2796C17.3326 33.6197 17.5538 34.106 17.5585 34.6183C17.5643 35.2495 17.6022 35.88 17.6721 36.5073C17.6728 36.5137 17.6734 36.52 17.6741 36.5263C17.6798 36.5827 17.7049 36.6353 17.7452 36.6751L17.7527 36.6826L21.3086 40.2385L21.316 40.2459C21.3559 40.2862 21.4085 40.3114 21.4649 40.317C21.4717 40.3177 21.4785 40.3184 21.4853 40.3192C22.1088 40.3887 22.7353 40.4266 23.3626 40.4327C23.8747 40.4377 24.3607 40.659 24.7006 41.042C25.0405 41.425 25.2025 41.9339 25.1467 42.4429L24.2573 50.5464C25.5223 50.2739 27.1599 49.7958 28.7579 48.9745C30.83 47.9096 32.7245 46.328 33.7561 43.9695C34.475 42.3194 34.6619 40.2876 34.4725 38.088C34.4172 37.4457 34.7073 36.8223 35.2343 36.4509C36.7342 35.394 38.1388 34.208 39.4321 32.9065L39.4398 32.8988C43.0992 29.2598 46.2483 24.0801 48.2963 18.9989C49.3167 16.4674 50.0463 14.0028 50.4329 11.8145C50.7463 10.0407 50.8207 8.52413 50.6861 7.32993C49.5613 7.20307 48.0966 7.27517 46.3518 7.58483C44.1758 7.97103 41.6987 8.70226 39.1438 9.72461ZM23.228 50.7403C23.2272 50.7404 23.2265 50.7405 23.2258 50.7406L23.2274 50.7404C23.2276 50.7403 23.2278 50.7403 23.228 50.7403ZM37.2525 17.7597C36.6543 17.7597 36.0695 17.9371 35.5721 18.2695C35.0747 18.6019 34.687 19.0743 34.4581 19.627C34.2292 20.1798 34.1693 20.7879 34.2861 21.3747C34.4029 21.9614 34.691 22.5003 35.1141 22.9233L33.8322 24.2055L35.1156 22.9248C35.396 23.2058 35.7291 23.4288 36.0958 23.5809C36.4625 23.733 36.8555 23.8113 37.2525 23.8113C37.6495 23.8113 38.0426 23.733 38.4093 23.5809C38.776 23.4288 39.1091 23.2058 39.3895 22.9248L39.391 22.9233C39.8141 22.5003 40.1022 21.9614 40.219 21.3747C40.3357 20.7879 40.2759 20.1798 40.047 19.627C39.8181 19.0743 39.4304 18.6019 38.933 18.2695C38.4356 17.9371 37.8508 17.7597 37.2525 17.7597ZM32.5505 25.4863C31.6207 24.5565 30.9875 23.3719 30.7308 22.0822C30.4741 20.7922 30.6057 19.4551 31.109 18.24C31.6122 17.0249 32.4645 15.9862 33.5581 15.2555C34.6516 14.5248 35.9373 14.1347 37.2525 14.1347C38.5678 14.1347 39.8535 14.5248 40.947 15.2555C42.0406 15.9862 42.8929 17.0249 43.3961 18.24C43.8994 19.4551 44.031 20.7922 43.7743 22.0822C43.5177 23.3714 42.8848 24.5557 41.9555 25.4854C41.3384 26.1038 40.6053 26.5944 39.7983 26.9292C38.9913 27.264 38.1262 27.4363 37.2525 27.4363C36.3789 27.4363 35.5138 27.264 34.7068 26.9292C33.9002 26.5946 33.1675 26.1043 32.5505 25.4863Z" fill="#7136E6"></path> <path fill-rule="evenodd" clip-rule="evenodd" d="M14.2192 39.6543C14.3411 40.6479 13.6346 41.5522 12.641 41.6742C11.9136 41.7635 11.2368 42.093 10.7178 42.6104C10.5437 42.786 10.2626 43.2676 9.98514 44.1761C9.72513 45.0273 9.53048 46.0396 9.38884 47.0441C9.3005 47.6705 9.2352 48.2762 9.18721 48.813C9.72441 48.7649 10.3306 48.6996 10.9575 48.6111C11.9621 48.4693 12.9742 48.2745 13.8249 48.0143C14.7351 47.7359 15.2147 47.4542 15.3873 47.2815L15.3904 47.2784C15.9089 46.7621 16.2383 46.0862 16.3254 45.3597C16.4446 44.3658 17.3469 43.6567 18.3408 43.7759C19.3347 43.8951 20.0438 44.7974 19.9246 45.7913C19.7405 47.3264 19.0447 48.7548 17.9494 49.8459C17.1235 50.6711 15.9275 51.162 14.8852 51.4808C13.7825 51.8181 12.5646 52.0452 11.464 52.2005C10.3552 52.357 9.31886 52.4469 8.5627 52.4978C8.18334 52.5234 7.87138 52.5393 7.65227 52.5489C7.54265 52.5537 7.45608 52.557 7.39572 52.559C7.36553 52.56 7.34188 52.5608 7.32516 52.5613L7.30533 52.5619L7.29673 52.5621C7.29644 52.5621 7.29618 52.5621 7.25 50.7502C5.43809 50.704 5.4381 50.7037 5.4381 50.7034L5.43833 50.6948L5.4389 50.675C5.4394 50.6583 5.44014 50.6347 5.44117 50.6045C5.44323 50.5442 5.44646 50.4577 5.45127 50.3481C5.46088 50.1291 5.47681 49.8173 5.50234 49.4381C5.55322 48.6823 5.64303 47.6465 5.79935 46.5379C5.95451 45.4376 6.1814 44.22 6.51824 43.1171C6.83698 42.0736 7.3274 40.8771 8.15139 40.0503L8.15445 40.0472C9.2454 38.9578 10.669 38.264 12.1993 38.0762C13.1929 37.9542 14.0972 38.6608 14.2192 39.6543ZM7.25 50.7502L5.43809 50.704C5.42543 51.2005 5.61712 51.6806 5.96836 52.0318C6.3196 52.3831 6.79961 52.5748 7.29618 52.5621L7.25 50.7502Z" fill="currentColor"></path> </svg>