<svg fill="none" xmlns="http://www.w3.org/2000/svg" viewBox="4.94 4.5 48.13 48.13"> <path fill-rule="evenodd" clip-rule="evenodd" d="M29.5574 5.00086C42.3133 5.29701 52.5631 15.7356 52.5631 28.5628C52.5631 41.5875 42.0346 52.1498 28.9972 52.1253C15.9487 52.1007 5.2937 41.3776 5.43822 28.3168C5.49719 22.605 7.63055 17.1093 11.4409 12.8537C12.1086 12.108 13.2545 12.0447 14.0002 12.7124C14.746 13.3802 14.8093 14.526 14.1415 15.2718C10.9177 18.8724 9.11276 23.5222 9.06302 28.3548L9.06301 28.3563C8.94058 39.3901 17.9579 48.4795 29.004 48.5003C40.0275 48.521 48.9381 39.5921 48.9381 28.5628C48.9381 18.1615 40.973 9.6164 30.8131 8.70065V16.7815C30.8131 17.7825 30.0016 18.594 29.0006 18.594C27.9996 18.594 27.1881 17.7825 27.1881 16.7815V7.30958C27.1877 7.00103 27.2492 6.69553 27.3689 6.41118C27.4891 6.1258 27.6656 5.86754 27.8877 5.65181C28.1099 5.43609 28.3732 5.26729 28.662 5.15551C28.9473 5.04507 29.2517 4.99252 29.5574 5.00086Z" fill="currentColor" stroke="currentColor" stroke-linecap="round" stroke-linejoin="round"></path> <path d="M26.8455 31.2743L17.8983 18.4764C17.8983 18.4764 17.8982 18.4763 17.8982 18.4763C17.8417 18.3952 17.8155 18.2969 17.8241 18.1984C17.8328 18.1 17.8759 18.0077 17.9458 17.9378C18.0157 17.8678 18.108 17.8248 18.2065 17.8161C18.3049 17.8074 18.4033 17.8336 18.4843 17.8902C18.4844 17.8902 18.4844 17.8902 18.4845 17.8902L31.282 26.8372C31.959 27.3259 32.4168 28.0612 32.5566 28.8845C32.6965 29.7089 32.5063 30.5552 32.027 31.2404C31.5478 31.9257 30.818 32.3947 29.9957 32.546C29.174 32.6972 28.3259 32.5192 27.6345 32.0505C27.3292 31.8386 27.0624 31.5761 26.8455 31.2743Z" fill="currentColor" stroke="currentColor"></path> </svg>