<svg width="24" height="24" viewBox="0 0 24 24" fill="none" xmlns="http://www.w3.org/2000/svg">
<path fill-rule="evenodd" clip-rule="evenodd" d="M5.94976 0.986824C6.1201 1.12061 6.31142 1.3006 6.53152 1.518C7.00308 1.98211 7.55016 2.72569 8.01959 3.43953C8.49429 4.16137 8.93415 4.92126 9.18069 5.45016L9.18085 5.4505L9.18101 5.45084C9.32075 5.75135 9.4467 6.02367 9.53524 6.26234C9.62515 6.50472 9.69986 6.77132 9.70034 7.06226C9.70135 7.67125 9.3708 8.14126 9.05241 8.57478C8.96093 8.69932 8.88321 8.80138 8.81623 8.88934C8.67183 9.07894 8.57718 9.20323 8.5014 9.34698C8.42748 9.4872 8.40591 9.58844 8.4409 9.75142C8.49135 9.98642 8.71067 10.5008 9.13655 11.1738C9.54841 11.8246 10.1123 12.5586 10.7861 13.2303C11.4597 13.9017 12.1821 14.4508 12.8199 14.8481C13.4772 15.2574 13.9833 15.4676 14.2251 15.5192C14.3933 15.555 14.4984 15.5326 14.6389 15.4595C14.7871 15.3823 14.919 15.2816 15.124 15.1251C15.2046 15.0636 15.2965 14.9934 15.4051 14.9127L15.4053 14.9126L15.4135 14.9065C15.8485 14.5833 16.3318 14.2242 16.9444 14.2248C17.2471 14.2252 17.5187 14.3106 17.7579 14.4083C17.9865 14.5016 18.249 14.6338 18.537 14.7789L18.5611 14.791C19.0659 15.0456 19.8165 15.4768 20.5431 15.9469C21.2569 16.4087 22.01 16.9477 22.479 17.4203L22.4797 17.421C22.6977 17.6411 22.8781 17.8325 23.0122 18.0027C23.1421 18.1676 23.2846 18.3808 23.3447 18.646C23.4124 18.9448 23.351 19.1933 23.2881 19.3657C23.2597 19.4434 23.2263 19.518 23.2022 19.5714C23.1985 19.5798 23.1948 19.5879 23.1913 19.5958C23.169 19.6453 23.1495 19.6885 23.1288 19.738L23.1283 19.7392L23.1278 19.7404C22.9156 20.2437 22.6574 20.7264 22.3565 21.1823L22.3556 21.1836L22.3547 21.185C21.7669 22.0681 21.2139 22.6451 20.3543 23.0455C19.9076 23.2536 19.2694 23.4637 18.2775 23.34C17.3235 23.2211 16.0823 22.7987 14.3883 21.8499L14.3879 21.8497C11.6771 20.3294 9.79619 19.0187 7.36984 16.5992C4.95062 14.1867 3.76151 12.6122 2.09576 9.58607C0.418825 6.53966 0.421228 4.66102 0.900122 3.63769C1.30221 2.77847 1.88501 2.22802 2.7652 1.64324L2.76693 1.64209L2.76867 1.64095C3.22509 1.34107 3.70802 1.08362 4.21139 0.87183L4.21305 0.871131L4.21472 0.87044C4.26453 0.84974 4.30811 0.830207 4.35792 0.807875C4.36574 0.804373 4.3737 0.800802 4.38187 0.797147C4.4354 0.773192 4.51005 0.73989 4.58772 0.711676C4.75988 0.649139 5.00795 0.588053 5.30615 0.655294C5.57128 0.715078 5.78458 0.857093 5.94976 0.986824ZM4.84007 2.37029C4.42932 2.54322 4.03523 2.7533 3.66269 2.99791C2.91912 3.49213 2.60037 3.83832 2.37193 4.32645C2.22012 4.65085 1.93917 5.93183 3.51934 8.80245C5.1107 11.6934 6.20674 13.1444 8.51729 15.4485C10.8206 17.7454 12.5766 18.9707 15.1824 20.4322C16.777 21.3253 17.8108 21.6443 18.4786 21.7275C19.1085 21.8061 19.4389 21.6793 19.6681 21.5725C20.1601 21.3434 20.5078 21.0268 21.0012 20.2858C21.2464 19.9139 21.457 19.5203 21.6301 19.1099C21.6535 19.054 21.6764 19.0024 21.6957 18.9593C21.62 18.8694 21.5039 18.745 21.3253 18.5647C20.9878 18.2247 20.3614 17.7648 19.6604 17.3113C18.9721 16.866 18.2726 16.4655 17.8298 16.2422C17.5101 16.0812 17.3054 15.9787 17.1438 15.9127C16.9866 15.8486 16.9409 15.8498 16.9427 15.8498C16.9574 15.8499 16.9072 15.8211 16.3744 16.217C16.3199 16.2574 16.2611 16.3025 16.1988 16.3503C15.9614 16.5323 15.674 16.7526 15.3892 16.9009C14.9636 17.1224 14.475 17.234 13.8861 17.1084C13.3707 16.9985 12.6756 16.6726 11.9608 16.2274C11.2265 15.77 10.4059 15.1458 9.63886 14.3811C8.87196 13.6167 8.23388 12.7862 7.76342 12.0428C7.30697 11.3215 6.96364 10.6121 6.85209 10.0925C6.72509 9.50085 6.84088 9.01227 7.06391 8.5892C7.20763 8.31656 7.42247 8.03487 7.5993 7.80303C7.65132 7.73481 7.70006 7.67092 7.74272 7.61283C8.08428 7.14777 8.07627 7.07363 8.07539 7.06555C8.07536 7.06528 8.07534 7.06508 8.07534 7.06495C8.07532 7.04929 8.0717 6.98931 8.01168 6.8275C7.95029 6.66201 7.85474 6.45259 7.70761 6.13621C7.5067 5.70531 7.11286 5.0182 6.66187 4.3324C6.20565 3.63865 5.73509 3.01403 5.39125 2.67575L5.39067 2.67518L5.39008 2.67461C5.20865 2.49539 5.08387 2.37925 4.99378 2.30364C4.95001 2.32321 4.89726 2.3465 4.84007 2.37029Z" />
</svg>
