<svg fill="none" xmlns="http://www.w3.org/2000/svg" viewBox="0 0 58 58"> <g clip-path="url(#clip0_1006_30902)"> <path fill-rule="evenodd" clip-rule="evenodd" d="M35.4319 9.02248C39.0274 5.45235 44.6419 4.50505 49.0301 6.38378L49.0367 6.38663L49.0434 6.38953C49.3281 6.51414 49.5781 6.70638 49.7716 6.94951C49.965 7.19257 50.0963 7.47928 50.1539 7.78479C50.2114 8.09024 50.1935 8.40507 50.1017 8.70193C50.0101 8.99855 49.8474 9.26837 49.6278 9.48795C49.6276 9.48814 49.6274 9.48832 49.6272 9.48851L43.8664 15.2493C43.8659 15.2498 43.8653 15.2504 43.8648 15.2509C43.6304 15.4875 43.4989 15.807 43.4989 16.14C43.4989 16.4731 43.6306 16.7927 43.8651 17.0293C43.8655 17.0297 43.866 17.0302 43.8664 17.0306L46.4053 19.5707C46.4059 19.5713 46.4065 19.5719 46.4071 19.5724C46.644 19.8069 46.9638 19.9384 47.2972 19.9384C47.6305 19.9384 47.9504 19.8069 48.1872 19.5724C48.1878 19.5718 48.1884 19.5713 48.189 19.5707L53.9778 13.7796L53.9785 13.7789L53.9793 13.7781C54.193 13.5648 54.4544 13.4052 54.7417 13.3125C55.0292 13.2198 55.3344 13.1966 55.6325 13.2448C55.9306 13.293 56.213 13.4113 56.4566 13.5899C56.7001 13.7685 56.8978 14.0023 57.0333 14.2722L57.0386 14.2827L57.0437 14.2932C58.0057 16.2713 58.2101 18.8082 57.7948 21.2046C57.3763 23.6194 56.2908 26.1152 54.4088 27.9692C50.8501 31.475 45.7465 31.5497 41.6727 30.4613L41.6713 30.4609C41.4525 30.4023 41.2219 30.4044 41.0042 30.467C40.7865 30.5296 40.59 30.6503 40.4358 30.8163L40.4337 30.8186L22.0758 50.4388C21.4956 51.083 20.7912 51.6032 20.0047 51.9682C19.2116 52.3362 18.3517 52.5387 17.4777 52.5631C16.6037 52.5875 15.7339 52.4335 14.9215 52.1103C14.1091 51.7871 13.3711 51.3016 12.7527 50.6835C12.1343 50.0654 11.6484 49.3277 11.3248 48.5155C11.0012 47.7032 10.8467 46.8335 10.8706 45.9595C10.8946 45.0854 11.0966 44.2255 11.4642 43.4322C11.8293 42.6444 12.3502 41.9387 12.9953 41.3578L32.5837 23.1553L32.5856 23.1535C32.7543 22.9977 32.8767 22.7982 32.9391 22.5772C33.0016 22.3561 33.0018 22.1221 32.9396 21.901L32.9395 21.9008C31.7849 17.7926 31.8243 12.6037 35.4317 9.02268M44.9055 9.08375C42.4398 8.92059 39.8185 9.77524 37.9859 11.595L37.9857 11.5952C35.7298 13.8345 35.4362 17.3861 36.4293 20.9198M44.9055 9.08375L41.2979 12.6913L41.2961 12.6931C40.3852 13.609 39.8739 14.8482 39.8739 16.14C39.8739 17.4317 40.3852 18.6709 41.2961 19.5868L41.2977 19.5885L43.8481 22.14L43.8503 22.1422C44.7665 23.0525 46.0056 23.5634 47.2972 23.5634C48.5887 23.5634 49.8278 23.0525 50.744 22.1422L50.7462 22.14L54.3677 18.5171C54.3918 19.1688 54.3475 19.8673 54.223 20.5856C53.9044 22.4242 53.0969 24.1731 51.8649 25.3867C49.6283 27.59 46.1165 27.8961 42.6099 26.9595C41.7547 26.7303 40.8531 26.7385 40.0021 26.9832C39.1523 27.2277 38.385 27.6989 37.7826 28.3462C37.7819 28.347 37.7811 28.3479 37.7803 28.3487L19.4021 47.9906L19.3886 48.0057C19.1343 48.29 18.8247 48.5195 18.4788 48.68C18.1328 48.8406 17.7577 48.9289 17.3764 48.9395C16.9952 48.9502 16.6158 48.883 16.2614 48.742C15.907 48.601 15.585 48.3892 15.3153 48.1196C15.0455 47.85 14.8336 47.5282 14.6924 47.1738C14.5512 46.8195 14.4838 46.4401 14.4943 46.0589C14.5047 45.6776 14.5928 45.3025 14.7532 44.9564C14.9136 44.6104 15.1429 44.3006 15.427 44.0462L15.4395 44.0351L35.0455 25.8161C35.0463 25.8154 35.0471 25.8146 35.0479 25.8139C35.7062 25.2049 36.1836 24.426 36.4275 23.563C36.6717 22.699 36.6723 21.7843 36.4293 20.92" fill="currentColor"></path> <path fill-rule="evenodd" clip-rule="evenodd" d="M25.0313 25.2856C24.9979 25.3006 24.9675 25.3216 24.9416 25.3476C24.9358 25.3533 24.93 25.3591 24.9242 25.3648L23.1564 27.0886C23.1294 27.116 23.1055 27.1461 23.085 27.1784C23.0673 27.2213 23.0616 27.2683 23.0688 27.3143C23.077 27.3664 23.1011 27.4147 23.1378 27.4524C23.3183 27.6286 23.5204 27.8267 23.7629 28.0645C24.3698 28.6596 25.2299 29.5029 26.6387 30.873C27.3563 31.5709 27.3722 32.7184 26.6743 33.436C25.9764 34.1536 24.8289 34.1696 24.1113 33.4717C22.697 32.0962 21.8242 31.2405 21.2166 30.6447C20.9736 30.4064 20.7729 30.2097 20.597 30.0379C20.5933 30.0343 20.5896 30.0306 20.5858 30.0269C19.9995 29.4443 19.6145 28.6897 19.4871 27.873C19.3598 27.0563 19.4966 26.2203 19.8777 25.4868C19.8858 25.4712 19.8941 25.4558 19.9027 25.4404C20.0922 25.1002 20.3285 24.7883 20.6047 24.5137C20.6089 24.5096 20.613 24.5055 20.6171 24.5015L22.386 22.7767C22.7252 22.4392 23.1233 22.1666 23.5606 21.9723L23.5629 21.9713C24.2699 21.6584 25.0544 21.5647 25.8151 21.7024C26.5744 21.8398 27.2751 22.2014 27.827 22.7405C28.4462 23.3416 29.5776 24.4424 31.6118 26.4245C32.3288 27.1231 32.3436 28.2707 31.645 28.9876C30.9464 29.7045 29.7989 29.7194 29.082 29.0208C27.0453 27.0362 25.9158 25.9373 25.2998 25.3393L25.2942 25.3339C25.26 25.3004 25.2166 25.278 25.1695 25.2694C25.1228 25.261 25.0747 25.2666 25.0313 25.2856Z" fill="currentColor"></path> <path fill-rule="evenodd" clip-rule="evenodd" d="M34.5911 31.7644C35.273 31.0315 36.4198 30.9902 37.1527 31.6721C41.7964 35.9926 47.384 41.0726 49.5364 42.8655C49.8937 43.1611 50.1855 43.5279 50.3932 43.9425C50.6017 44.3589 50.7208 44.8144 50.7427 45.2796C50.7647 45.7448 50.689 46.2094 50.5206 46.6436C50.3524 47.0773 50.0954 47.4711 49.7661 47.7996C49.7657 47.8 49.7653 47.8003 49.765 47.8007L45.9856 51.5789C45.982 51.5826 45.9783 51.5862 45.9746 51.5899C45.9733 51.5911 45.9721 51.5923 45.9709 51.5935C45.6411 51.9157 45.2492 52.1675 44.819 52.3334C44.3888 52.4994 43.9294 52.576 43.4686 52.5588C43.0079 52.5415 42.5554 52.4307 42.1389 52.233C41.7223 52.0354 41.3503 51.755 41.0456 51.409C41.0413 51.4041 41.037 51.3992 41.0327 51.3943C39.1943 49.2611 34.1761 43.8621 29.8509 39.3431C29.1587 38.62 29.1839 37.4727 29.907 36.7805C30.6302 36.0883 31.7775 36.1135 32.4697 36.8366C36.6712 41.2263 41.5827 46.5043 43.6077 48.8304L46.9836 45.4555C44.6021 43.4445 39.1611 38.492 34.6835 34.326C33.9506 33.6441 33.9093 32.4973 34.5911 31.7644Z" fill="currentColor"></path> <path fill-rule="evenodd" clip-rule="evenodd" d="M22.6948 9.08655C21.6074 9.16085 20.5369 9.40668 19.5236 9.81628L19.5213 9.81719C15.2933 11.5196 12.7902 13.8822 12.197 14.4633C11.5007 15.1514 10.8519 15.8858 10.2552 16.6615C10.256 16.7372 10.263 16.8503 10.2778 17.0548C10.2785 17.0638 10.2791 17.0732 10.2799 17.0829C10.2968 17.3149 10.3275 17.7358 10.2686 18.1635C10.2002 18.6602 9.99826 19.2877 9.45335 19.8145C9.44979 19.8179 9.44622 19.8213 9.44263 19.8247C8.71985 20.5121 7.78635 20.7131 7.20818 20.7781C6.77282 20.8311 6.33103 20.7858 5.91542 20.6452C5.90225 20.6407 5.88911 20.6362 5.87601 20.6315L4.16867 22.3L7.73625 25.7821L9.35383 24.2025C9.31316 24.1265 9.27531 24.0489 9.2404 23.9699C9.05828 23.5574 8.95965 23.113 8.95023 22.6622C8.9408 22.2114 9.02075 21.7632 9.18547 21.3435C9.35019 20.9237 9.59641 20.5408 9.90992 20.2167C9.91315 20.2134 9.9164 20.2101 9.91965 20.2068C10.1283 19.9944 10.3664 19.8132 10.6266 19.6687C11.5781 19.1313 12.6724 18.9006 13.76 19.0084C13.7655 19.0089 13.771 19.0095 13.7765 19.0101C14.3884 19.0764 15.4071 19.3175 16.595 20.0387C17.5981 20.6478 19.1389 21.8177 21.2855 23.8933L21.8713 23.3147C20.4385 21.8481 19.4887 20.7584 18.9047 19.82C18.5416 19.2365 18.2914 18.6697 18.1536 18.0672C18.0172 17.4711 18.0122 16.9301 18.0353 16.4508L18.0354 16.4483C18.1606 13.9209 18.9919 11.703 21.0784 10.0518L21.0843 10.0472C21.5312 9.6965 22.0854 9.36979 22.6948 9.08655ZM28.3779 11.7989C27.8128 11.681 27.2337 11.6455 26.6584 11.6934L26.6555 11.6937C25.4587 11.7915 23.9881 12.3781 23.3248 12.8968C22.2643 13.7375 21.7439 14.8539 21.6561 16.6268C21.6408 16.9461 21.655 17.1176 21.6873 17.2588C21.7182 17.3939 21.7862 17.5894 21.9824 17.9046C22.4167 18.6025 23.3133 19.6382 25.217 21.5425C25.2404 21.5659 25.2631 21.5899 25.2852 21.6145C25.7277 22.1085 25.9613 22.755 25.9367 23.4177C25.9123 24.0753 25.6357 24.698 25.1646 25.1568L23.1065 27.19L23.1016 27.1948C22.6232 27.664 21.9816 27.9296 21.3115 27.9359C20.6414 27.9422 19.9949 27.6888 19.5077 27.2287C19.4951 27.2168 19.4826 27.2047 19.4704 27.1925C17.0405 24.7626 15.4894 23.6083 14.7136 23.1373C14.0233 22.7181 13.5255 22.6303 13.3934 22.6148C13.1792 22.5948 12.9645 22.6161 12.7604 22.6763C12.9642 22.8851 13.1273 23.1303 13.241 23.3994C13.3626 23.6873 13.4253 23.9966 13.4253 24.309C13.4253 24.6215 13.3626 24.9308 13.241 25.2186C13.1197 25.5057 12.9422 25.7657 12.7189 25.9831C12.7183 25.9837 12.7178 25.9842 12.7172 25.9848L9.39962 29.2245C9.18115 29.4415 8.92204 29.6135 8.63704 29.7305C8.35152 29.8477 8.04572 29.9074 7.73719 29.9063C7.12721 29.9071 6.54022 29.672 6.09934 29.2498C6.09696 29.2475 6.09459 29.2452 6.09222 29.2429C6.09051 29.2412 6.08879 29.2396 6.08708 29.2379L0.698289 23.9783C0.681827 23.9622 0.665673 23.9458 0.649835 23.9291C0.232533 23.4896 -0.00012207 22.9066 -0.00012207 22.3006C-0.00012207 21.6945 0.232533 21.1115 0.649835 20.672L1.96428 21.9199L0.697504 20.6236L4.02523 17.3717C4.02615 17.3708 4.02707 17.3699 4.028 17.369C4.25118 17.1503 4.51581 16.9784 4.80636 16.8634C5.0886 16.7516 5.38973 16.6958 5.69303 16.6988C6.02047 16.6994 6.34113 16.7681 6.63591 16.8973C6.62829 16.7084 6.62703 16.4895 6.64566 16.2696C6.68403 15.817 6.8125 15.2287 7.21596 14.6701C7.22332 14.6599 7.23079 14.6498 7.23836 14.6398C7.97515 13.6632 8.78191 12.7414 9.65226 11.8817L9.65734 11.8767C10.4279 11.1216 13.3247 8.40465 18.1663 6.45496C19.8333 5.78132 21.6147 5.43585 23.4127 5.43751C26.4598 5.43777 28.8564 6.76465 29.869 7.68175C29.88 7.69171 29.8908 7.7018 29.9016 7.71203C30.4033 8.18937 30.8625 8.70939 31.2742 9.26624C31.7504 9.91037 31.7473 10.7907 31.2666 11.4314C30.7859 12.0722 29.9415 12.3214 29.1899 12.0444C28.9243 11.9465 28.6532 11.8645 28.3779 11.7989ZM7.20069 17.4841L6.06846 18.6642L7.21807 17.5021L7.20069 17.4841ZM7.22616 17.4939L7.2088 17.4757L7.32306 17.3566C7.32987 17.3628 7.33657 17.3692 7.34314 17.3757L7.22616 17.4939Z" fill="currentColor"></path> </g> <defs> <clipPath id="clip0_1006_30902"> <rect width="58" height="58" fill="none"></rect> </clipPath> </defs> </svg>