<svg fill="none" xmlns="http://www.w3.org/2000/svg" viewBox="0.58 0.17 32.02 32.13"> <path d="M11.5778 1.04923C7.59908 2.38978 4.20576 5.32279 2.3216 9.02054C1.66306 10.2981 1.18745 11.6567 0.903907 13.0602C0.18134 16.551 0.684393 20.2668 2.3216 23.4517C3.38259 25.53 4.91004 27.3744 6.75761 28.8139C8.50458 30.1814 10.5351 31.1891 12.6936 31.7559C15.4101 32.4756 18.3095 32.4576 21.0535 31.8458C23.5321 31.288 25.8736 30.1184 27.7395 28.427C29.7151 26.6366 31.1237 24.2884 31.8737 21.7602C32.6877 18.9982 32.7975 16.0562 32.2853 13.2311C27.1633 13.2311 22.0413 13.2311 16.9101 13.2311C16.9101 15.3184 16.9101 17.4147 16.9101 19.502C19.8736 19.502 22.8462 19.502 25.8096 19.502C25.462 21.5083 24.2547 23.3347 22.5352 24.4683C21.4559 25.1791 20.2211 25.6469 18.9406 25.8629C17.651 26.0788 16.3248 26.1058 15.0443 25.8539C13.7363 25.602 12.4924 25.0621 11.404 24.3064C9.66617 23.1098 8.33994 21.3464 7.66311 19.3761C6.96798 17.3697 6.95883 15.1295 7.66311 13.1232C8.14787 11.7106 8.9619 10.3971 10.032 9.33544C11.3491 8.00389 13.0595 7.0592 14.9071 6.67234C16.4894 6.33945 18.154 6.40243 19.6998 6.86127C21.0169 7.25714 22.2242 7.9589 23.2212 8.89459C24.2273 7.91392 25.2242 6.92425 26.2303 5.94358C26.7517 5.41276 27.3096 4.90893 27.8218 4.36012C26.3035 2.97458 24.5108 1.85896 22.5626 1.1572C19.0687 -0.12937 15.1083 -0.156362 11.5778 1.04923Z" fill="white"></path> <path d="M11.5751 1.04929C15.1057 -0.1563 19.0661 -0.129308 22.5783 1.14826C24.5265 1.85002 26.31 2.96565 27.8375 4.35118C27.3253 4.891 26.7765 5.40382 26.246 5.93465C25.2399 6.91531 24.2429 7.90498 23.2368 8.88565C22.2399 7.94997 21.0325 7.2392 19.7155 6.85234C18.1697 6.39349 16.5051 6.33051 14.9227 6.6634C13.0752 7.05027 11.3648 8.00395 10.0477 9.3265C8.97757 10.3881 8.16354 11.7017 7.67878 13.1142C5.89523 11.7557 4.11168 10.3881 2.32812 9.0296C4.20314 5.32285 7.59646 2.38984 11.5751 1.04929Z" fill="#E94435"></path> <path d="M0.903907 13.0601C1.18745 11.6566 1.67221 10.2981 2.3216 9.02051C4.10515 10.379 5.8887 11.7466 7.67225 13.1051C6.96798 15.1115 6.97713 17.3517 7.67225 19.358C5.8887 20.7166 4.10515 22.0841 2.3216 23.4426C0.684393 20.2757 0.18134 16.551 0.903907 13.0601Z" fill="#F8BB15"></path> <path d="M16.9194 13.2227C22.0414 13.2227 27.1634 13.2227 32.2946 13.2227C32.8068 16.0477 32.697 18.9897 31.883 21.7518C31.133 24.2799 29.7244 26.6371 27.7488 28.4185C26.0201 27.096 24.2823 25.7734 22.5628 24.4509C24.2823 23.3262 25.4896 21.4909 25.8372 19.4845C22.8737 19.4845 19.9012 19.4845 16.9377 19.4845C16.9103 17.4062 16.9194 15.3189 16.9194 13.2227Z" fill="#547DBE"></path> <path d="M2.32031 23.4508C4.10386 22.0923 5.88741 20.7248 7.67097 19.3662C8.3478 21.3455 9.67403 23.1 11.4118 24.2965C12.5003 25.0523 13.7442 25.5831 15.0521 25.844C16.3326 26.0959 17.668 26.069 18.9485 25.853C20.229 25.6371 21.4638 25.1693 22.543 24.4585C24.2717 25.781 26.0095 27.1036 27.7291 28.4262C25.8632 30.1266 23.5217 31.2872 21.043 31.845C18.3082 32.4568 15.4088 32.4748 12.6832 31.755C10.5246 31.1882 8.49414 30.1806 6.74718 28.813C4.90875 27.3645 3.3813 25.5201 2.32031 23.4508Z" fill="#34A751"></path> </svg>