<svg fill="none" xmlns="http://www.w3.org/2000/svg" viewBox="2.67 2.67 26.62 26.62"> <path d="M21.356 2.66675H10.596C8.49353 2.66922 6.4779 3.5056 4.99136 4.9924C3.50482 6.47919 2.66877 8.49495 2.66666 10.5974L2.66666 21.3574C2.66913 23.4599 3.50551 25.4755 4.9923 26.962C6.4791 28.4486 8.49486 29.2846 10.5973 29.2867H21.3573C23.4598 29.2843 25.4754 28.4479 26.962 26.9611C28.4485 25.4743 29.2845 23.4585 29.2867 21.3561V10.5961C29.2842 8.49362 28.4478 6.478 26.961 4.99145C25.4742 3.50491 23.4585 2.66887 21.356 2.66675V2.66675ZM26.6093 21.3561C26.6093 22.046 26.4734 22.7291 26.2094 23.3664C25.9454 24.0038 25.5585 24.5829 25.0707 25.0708C24.5828 25.5586 24.0037 25.9455 23.3664 26.2095C22.729 26.4735 22.0459 26.6094 21.356 26.6094H10.596C9.20295 26.6091 7.86709 26.0554 6.88218 25.0703C5.89728 24.0851 5.34399 22.7491 5.34399 21.3561V10.5961C5.34434 9.20304 5.89797 7.86718 6.88313 6.88228C7.86828 5.89737 9.20428 5.34408 10.5973 5.34408H21.3573C22.7504 5.34443 24.0862 5.89807 25.0711 6.88322C26.056 7.86837 26.6093 9.20438 26.6093 10.5974V21.3574V21.3561Z" fill="#7136E6"></path> <path d="M15.976 9.09204C14.1512 9.09486 12.402 9.82109 11.1119 11.1115C9.82168 12.4019 9.09579 14.1513 9.09332 15.976C9.09544 17.8013 9.82135 19.5511 11.1119 20.8419C12.4024 22.1327 14.1521 22.8589 15.9773 22.8614C17.8028 22.8593 19.5529 22.1332 20.8437 20.8424C22.1344 19.5516 22.8605 17.8015 22.8627 15.976C22.8598 14.1508 22.1332 12.4012 20.8422 11.111C19.5512 9.82071 17.8012 9.09514 15.976 9.09337V9.09204ZM15.976 20.184C14.8603 20.184 13.7903 19.7408 13.0014 18.9519C12.2125 18.163 11.7693 17.0931 11.7693 15.9774C11.7693 14.8617 12.2125 13.7917 13.0014 13.0028C13.7903 12.2139 14.8603 11.7707 15.976 11.7707C17.0917 11.7707 18.1616 12.2139 18.9506 13.0028C19.7395 13.7917 20.1827 14.8617 20.1827 15.9774C20.1827 17.0931 19.7395 18.163 18.9506 18.9519C18.1616 19.7408 17.0917 20.184 15.976 20.184Z" fill="#7136E6"></path> <path d="M22.8747 10.7933C23.7856 10.7933 24.524 10.0549 24.524 9.14396C24.524 8.23306 23.7856 7.49463 22.8747 7.49463C21.9638 7.49463 21.2253 8.23306 21.2253 9.14396C21.2253 10.0549 21.9638 10.7933 22.8747 10.7933Z" fill="#7136E6"></path> </svg>