<svg fill="none" xmlns="http://www.w3.org/2000/svg" viewBox="2.86 2.55 27 27"> <path d="M27.2174 5.19988L5.50935 13.6345L11.948 16.3092C13.83 17.0899 15.3253 18.5856 16.1054 20.4679L18.78 26.9052L27.2174 5.19988ZM29.68 6.10921L21.2427 27.8172C20.7094 29.1905 19.1747 29.8932 17.8147 29.3905C17.4833 29.2682 17.1808 29.0786 16.9261 28.8338C16.6714 28.589 16.4701 28.2942 16.3347 27.9679L13.6587 21.5279C13.1381 20.2736 12.1412 19.2772 10.8867 18.7572L4.44935 16.0825C3.11069 15.5265 2.50002 13.9812 3.08535 12.6292C3.22915 12.2987 3.43689 12 3.69661 11.7501C3.95633 11.5002 4.2629 11.3041 4.59869 11.1732L26.3067 2.73588C26.7783 2.54636 27.2952 2.49958 27.7931 2.60137C28.2911 2.70315 28.7481 2.94901 29.1075 3.3084C29.4669 3.66778 29.7127 4.12485 29.8145 4.6228C29.9163 5.12075 29.8695 5.63763 29.68 6.10921Z" fill="#7136E6"></path> </svg>