<svg fill="none" xmlns="http://www.w3.org/2000/svg" viewBox="0.67 0.35 26.67 21.33"> <path d="M27.3333 2.87622C26.3338 3.31272 25.2753 3.59893 24.192 3.72555C25.329 3.05786 26.1841 1.99903 26.5973 0.746885C25.52 1.37399 24.345 1.81569 23.1213 2.05355C22.6061 1.51383 21.9862 1.08474 21.2997 0.792456C20.6131 0.500178 19.8742 0.350839 19.128 0.353552C16.1067 0.353552 13.6573 2.76689 13.6573 5.74022C13.6573 6.16155 13.7053 6.57355 13.7987 6.96689C11.6314 6.86381 9.50948 6.3101 7.56821 5.34107C5.62695 4.37205 3.909 3.00899 2.52399 1.33889C2.03842 2.15809 1.78321 3.09326 1.78532 4.04555C1.78625 4.93617 2.00909 5.81253 2.43371 6.59541C2.85833 7.37829 3.47133 8.04303 4.21732 8.52955C3.34997 8.50155 2.50135 8.26999 1.73999 7.85355V7.92022C1.73999 10.5309 3.62666 12.7082 6.12666 13.2042C5.6568 13.3289 5.17277 13.3921 4.68666 13.3922C4.33332 13.3922 3.99066 13.3589 3.65599 13.2922C4.01344 14.3695 4.69747 15.3086 5.61308 15.9793C6.5287 16.65 7.63045 17.019 8.76532 17.0349C6.81875 18.5343 4.42908 19.3443 1.97199 19.3376C1.52932 19.3376 1.09466 19.3109 0.666656 19.2629C3.17499 20.8505 6.08345 21.6913 9.05199 21.6869C19.1147 21.6869 24.616 13.4776 24.616 6.35889L24.5973 5.66155C25.6705 4.90645 26.5975 3.96268 27.3333 2.87622Z"></path> </svg>