<svg fill="none" xmlns="http://www.w3.org/2000/svg" viewBox="2.67 5.35 26.67 21.33"> <path d="M29.3334 7.87597C28.3339 8.31248 27.2753 8.59869 26.192 8.72531C27.3291 8.05762 28.1841 6.99878 28.5974 5.74664C27.52 6.37375 26.345 6.81545 25.1214 7.05331C24.6061 6.51358 23.9863 6.08449 23.2997 5.79221C22.6131 5.49993 21.8742 5.3506 21.128 5.35331C18.1067 5.35331 15.6574 7.76664 15.6574 10.74C15.6574 11.1613 15.7054 11.5733 15.7987 11.9666C13.6315 11.8636 11.5095 11.3099 9.56824 10.3408C7.62698 9.3718 5.90903 8.00875 4.52402 6.33864C4.03846 7.15784 3.78324 8.09302 3.78535 9.04531C3.78628 9.93593 4.00912 10.8123 4.43374 11.5952C4.85836 12.3781 5.47136 13.0428 6.21735 13.5293C5.35 13.5013 4.50138 13.2697 3.74002 12.8533V12.92C3.74002 15.5306 5.62669 17.708 8.12669 18.204C7.65683 18.3286 7.1728 18.3918 6.68669 18.392C6.33335 18.392 5.99069 18.3586 5.65602 18.292C6.01347 19.3692 6.6975 20.3084 7.61311 20.9791C8.52873 21.6498 9.63048 22.0187 10.7654 22.0346C8.81878 23.534 6.42911 24.344 3.97202 24.3373C3.52935 24.3373 3.09469 24.3106 2.66669 24.2626C5.17503 25.8503 8.08348 26.691 11.052 26.6866C21.1147 26.6866 26.616 18.4773 26.616 11.3586L26.5974 10.6613C27.6705 9.9062 28.5975 8.96244 29.3334 7.87597Z" fill="#7136E6"></path> </svg>