<svg fill="none" xmlns="http://www.w3.org/2000/svg" viewBox="2.37 2.33 23.26 23.29"> <path d="M13.4353 2.34741C7.24033 2.63907 2.35317 7.76074 2.37183 13.9172C2.3749 15.7294 2.80878 17.5149 3.63767 19.1264L2.40333 25.0776C2.38827 25.152 2.39222 25.229 2.4148 25.3015C2.43738 25.3739 2.47788 25.4396 2.53253 25.4922C2.58719 25.5449 2.65425 25.583 2.72751 25.6029C2.80077 25.6228 2.87787 25.6239 2.95167 25.6061L8.82467 24.2247C10.3802 24.9934 12.0878 25.4048 13.8227 25.4287C20.1542 25.5256 25.4322 20.5346 25.6293 14.2521C25.8417 7.51457 20.2428 2.02424 13.4353 2.34624V2.34741ZM20.4435 20.2756C19.5971 21.119 18.5925 21.7871 17.4874 22.2415C16.3823 22.696 15.1984 22.9279 14.0035 22.9239C12.5977 22.9282 11.2101 22.6055 9.9505 21.9812L9.13267 21.5764L5.53117 22.4234L6.2895 18.7706L5.88583 17.9866C5.23145 16.7181 4.89211 15.3107 4.8965 13.8834C4.8965 11.4684 5.84383 9.19691 7.5635 7.49007C9.27756 5.79339 11.5917 4.84132 14.0035 4.84057C16.4372 4.84057 18.7238 5.78091 20.4435 7.48891C21.2907 8.32382 21.9631 9.31923 22.4212 10.417C22.8793 11.5147 23.1141 12.6927 23.1117 13.8822C23.1117 16.2762 22.1492 18.5839 20.4435 20.2767V20.2756Z" fill="#7136E6"></path> <path d="M19.649 16.3857L17.3962 15.7441C17.2508 15.7024 17.0969 15.7005 16.9505 15.7387C16.8042 15.7768 16.6708 15.8537 16.5643 15.9611L16.0137 16.5187C15.8997 16.6342 15.7543 16.7134 15.5956 16.7466C15.4368 16.7798 15.2718 16.7655 15.1212 16.7054C14.056 16.2772 11.8137 14.2986 11.2408 13.3081C11.1605 13.1682 11.1239 13.0075 11.1355 12.8466C11.1471 12.6857 11.2066 12.532 11.3062 12.4051L11.7868 11.7867C11.8794 11.6683 11.9379 11.5269 11.9562 11.3776C11.9745 11.2284 11.9518 11.0771 11.8907 10.9397L10.9433 8.81175C10.8898 8.69281 10.8093 8.58792 10.7083 8.50532C10.6074 8.42272 10.4886 8.36467 10.3614 8.33572C10.2342 8.30678 10.102 8.30773 9.97528 8.33851C9.84851 8.36928 9.7306 8.42904 9.63083 8.51308C9.002 9.04158 8.25533 9.84308 8.1655 10.7332C8.00567 12.3001 8.68233 14.2752 11.242 16.6482C14.1995 19.3887 16.569 19.7516 18.1102 19.3794C18.9852 19.1694 19.6852 18.3259 20.125 17.6364C20.1953 17.5269 20.239 17.4024 20.2525 17.2729C20.2659 17.1435 20.2488 17.0126 20.2025 16.891C20.1562 16.7693 20.082 16.6603 19.9859 16.5725C19.8897 16.4848 19.7744 16.4208 19.649 16.3857Z" fill="#7136E6"></path> </svg>