<svg fill="none" xmlns="http://www.w3.org/2000/svg" viewBox="0.67 0.69 26.61 18.62"> <path d="M21.7493 0.68981H6.19332C3.13999 0.68981 0.666656 3.13648 0.666656 6.15514V13.8458C0.666656 16.8645 3.14132 19.3125 6.19332 19.3125H21.7493C24.8027 19.3125 27.276 16.8645 27.276 13.8458V6.15514C27.276 3.13648 24.8013 0.688477 21.7493 0.688477V0.68981ZM18.012 10.3738L10.736 13.8071C10.6916 13.8285 10.6425 13.8383 10.5934 13.8356C10.5442 13.8329 10.4965 13.8178 10.4547 13.7918C10.4129 13.7657 10.3784 13.7294 10.3544 13.6864C10.3304 13.6434 10.3176 13.5951 10.3173 13.5458V6.46714C10.3182 6.41764 10.3316 6.36917 10.3563 6.32624C10.381 6.28332 10.4161 6.24733 10.4584 6.22165C10.5007 6.19596 10.5489 6.1814 10.5983 6.17933C10.6478 6.17726 10.697 6.18775 10.7413 6.20981L18.0187 9.85648C18.0671 9.88065 18.1078 9.918 18.136 9.96424C18.1642 10.0105 18.1788 10.0637 18.1781 10.1179C18.1774 10.1721 18.1614 10.2249 18.1321 10.2704C18.1027 10.3159 18.0611 10.3522 18.012 10.3751V10.3738Z"></path> </svg>