<svg fill="none" xmlns="http://www.w3.org/2000/svg" viewBox="2.67 6.69 26.61 18.62"> <path d="M23.7493 6.68932H8.19332C5.13999 6.68932 2.66666 9.13599 2.66666 12.1547V19.8453C2.66666 22.864 5.14132 25.312 8.19332 25.312H23.7493C26.8027 25.312 29.276 22.864 29.276 19.8453V12.1547C29.276 9.13599 26.8013 6.68799 23.7493 6.68799V6.68932ZM20.012 16.3733L12.736 19.8067C12.6916 19.828 12.6425 19.8378 12.5934 19.8351C12.5442 19.8324 12.4965 19.8173 12.4547 19.7913C12.4129 19.7652 12.3784 19.729 12.3544 19.686C12.3304 19.643 12.3176 19.5946 12.3173 19.5453V12.4667C12.3182 12.4172 12.3316 12.3687 12.3563 12.3258C12.381 12.2828 12.4161 12.2468 12.4584 12.2212C12.5007 12.1955 12.5489 12.1809 12.5983 12.1788C12.6478 12.1768 12.697 12.1873 12.7413 12.2093L20.0187 15.856C20.0671 15.8802 20.1078 15.9175 20.136 15.9638C20.1642 16.01 20.1788 16.0633 20.1781 16.1174C20.1774 16.1716 20.1614 16.2244 20.1321 16.2699C20.1027 16.3154 20.0611 16.3517 20.012 16.3747V16.3733Z" fill="#7136E6"></path> </svg>